<svg xmlns="http://www.w3.org/2000/svg" width="39.344" height="39.41"><path id="offer-icon3" d="M358.268 3200H322.63a1.848 1.848 0 01-1.844-1.85v-35.71a1.848 1.848 0 011.844-1.85h35.638a1.848 1.848 0 011.843 1.85v35.71a1.848 1.848 0 01-1.843 1.85zm-1.843-35.72h-31.952v32.02h31.952v-32.02zm-29.225 16.31l4.915-3.08a1.858 1.858 0 01.964-.27 1.828 1.828 0 011.033.31l.007-.01 8.149 5.45 9.386-6.64a1.8 1.8 0 011.088-.36 1.845 1.845 0 011.08 3.34v.01l-10.446 7.39v-.01a1.808 1.808 0 01-2.138.02l-8.18-5.46-3.854 2.41a1.846 1.846 0 11-2.004-3.1z" transform="translate(-320.781 -3160.59)" fill="#fff" fill-rule="evenodd"/></svg>