<svg xmlns="http://www.w3.org/2000/svg" width="46.406" height="39.41"><path id="offer-icon4" d="M935.574 3185.4a9.485 9.485 0 119.426-9.48 9.45 9.45 0 01-9.426 9.48zm4.351-11.67h-2.176v-2.19a2.175 2.175 0 10-4.35 0v2.19h-2.175a2.19 2.19 0 000 4.38h2.176v2.18a2.175 2.175 0 104.35 0v-2.18h2.176a2.19 2.19 0 00-.001-4.38zm-13.26-5.29l-2.414-4.59h.009a2.179 2.179 0 011.889-3.26 2.167 2.167 0 011.939 1.22l.008-.01 2.007 3.82a11.611 11.611 0 00-3.438 2.82zm-7.315-4.59l-4.81 9.15h-4.923l5.888-11.2v.01a2.165 2.165 0 014.113.97 2.2 2.2 0 01-.286 1.07h.013zm-2.99 11.34h7.65c-.015.24-.037.48-.037.73a11.67 11.67 0 004.351 9.1v8.41a2.175 2.175 0 104.35 0v-6.22a11.562 11.562 0 002.9.38 11.322 11.322 0 003.461-.53l-2.8 11.28h-.006a2.176 2.176 0 01-2.1 1.66h-24.657a2.177 2.177 0 01-2.1-1.66h-.006l-4.663-18.78h-1.927a2.185 2.185 0 010-4.37h15.584zm3.263 18.24a2.175 2.175 0 104.35 0v-11.68a2.175 2.175 0 10-4.35 0v11.68zm-4.35-11.68a2.176 2.176 0 10-4.351 0v11.68a2.176 2.176 0 104.351 0v-11.68z" transform="translate(-898.594 -3160.59)" fill="#fff" fill-rule="evenodd"/></svg>