<svg xmlns="http://www.w3.org/2000/svg" width="43.282" height="39.41"><path id="offer-icon2" d="M943.427 3023.31a5.407 5.407 0 11-10.814 0 5.408 5.408 0 11-10.815 0 5.407 5.407 0 11-10.814 0 5.408 5.408 0 11-10.815 0l3.8-10.2h35.654l3.8 10.2zm-6.759-12.23h-29.74a2.04 2.04 0 010-4.08h29.74a2.04 2.04 0 010 4.08zm-30.416 19.67c.2-.02.385-.05.575-.08.041-.01.083-.01.123-.02l.259-.06a7.725 7.725 0 001.071-.33v10.03h27.036v-10.03a7.754 7.754 0 001.07.33l.26.06c.041.01.082.01.123.02.19.03.381.06.575.08.222.02.448.03.676.03a7.509 7.509 0 001.351-.13v13.72a2.037 2.037 0 01-2.027 2.04h-31.092a2.038 2.038 0 01-2.027-2.04v-13.72a7.52 7.52 0 001.352.13q.342 0 .675-.03z" transform="translate(-900.156 -3007)" fill="#fff" fill-rule="evenodd"/></svg>