<svg xmlns="http://www.w3.org/2000/svg" width="41.688" height="35.47"><path id="offer-icon1" d="M350.915 3037.95a1.935 1.935 0 110-3.87 5.834 5.834 0 005.862-5.8 5.756 5.756 0 00-1.978-4.34 3.885 3.885 0 00-.389-.31.048.048 0 00-.027-.02c-.126-.1-.257-.18-.391-.27l-.062-.03a3.13 3.13 0 00-.384-.21l-.108-.06c-.12-.05-.242-.11-.366-.16l-.164-.06a3.92 3.92 0 00-.338-.11l-.23-.06c-.1-.02-.2-.05-.3-.07s-.214-.03-.321-.05l-.232-.03a5.46 5.46 0 00-.574-.03c-.062 0-.121.01-.182.01-.059-.33-.134-.65-.222-.97-.022-.08-.051-.16-.075-.23-.073-.24-.148-.49-.237-.72-.026-.07-.059-.14-.088-.21-.1-.24-.195-.47-.308-.7-.027-.06-.058-.11-.086-.17-.123-.24-.25-.47-.39-.7a11.094 11.094 0 00-18.97 0c-.139.23-.267.46-.389.7-.028.06-.06.11-.087.17-.112.23-.212.46-.308.7-.028.07-.061.14-.088.21-.089.23-.164.48-.237.72-.023.07-.053.15-.074.23-.089.32-.164.64-.223.97-.061 0-.12-.01-.181-.01a5.465 5.465 0 00-.575.03l-.232.03c-.107.02-.215.03-.321.05s-.2.05-.3.07l-.231.06c-.114.03-.226.07-.338.11l-.164.06c-.124.05-.246.11-.366.16l-.108.06a3.046 3.046 0 00-.383.21l-.063.03c-.134.09-.265.17-.391.27a.043.043 0 00-.026.02 3.885 3.885 0 00-.389.31 5.753 5.753 0 00-1.978 4.34 5.833 5.833 0 005.862 5.8 1.935 1.935 0 110 3.87 9.66 9.66 0 01-2.857-18.92 14.991 14.991 0 0127.859 0 9.66 9.66 0 01-2.852 18.92zm-16.935-3.22a1.955 1.955 0 011.447.64h.006l2.455 2.7v-9.79a1.954 1.954 0 013.908 0v9.79l2.456-2.7a1.955 1.955 0 013.4 1.29 1.9 1.9 0 01-.507 1.29l-5.862 6.45a1.956 1.956 0 01-2.894 0l-5.862-6.45a1.9 1.9 0 01-.507-1.29 1.94 1.94 0 011.96-1.93z" transform="translate(-319 -3009.56)" fill="#fff" fill-rule="evenodd"/></svg>