<svg xmlns="http://www.w3.org/2000/svg" width="68" height="68"><path d="M34 0a34 34 0 1034 34A34 34 0 0034 0zM21.854 29.082a7.957 7.957 0 012.132-2.583 9.816 9.816 0 013.24-1.677 13.833 13.833 0 014.149-.59 11.191 11.191 0 014.805.907v-.726a3.067 3.067 0 00-.975-2.493 4.886 4.886 0 00-3.151-.816 10.478 10.478 0 00-3.762.657 18.477 18.477 0 00-3.627 1.927l-2.493-5.35A19.41 19.41 0 0132.916 15.3q5.712 0 8.794 2.538t3.083 7.616v4.623a1.86 1.86 0 002.085 2.267V39.6q-1.179.227-2.221.341a17.554 17.554 0 01-1.859.114 6.13 6.13 0 01-3.513-.838 3.911 3.911 0 01-1.564-2.472l-.181-.86a10.985 10.985 0 01-3.672 3.1 9.634 9.634 0 01-4.443 1.065 9.21 9.21 0 01-3.309-.589 8.21 8.21 0 01-2.652-1.609 7.377 7.377 0 01-1.745-2.425 7.3 7.3 0 01-.635-3.037 7.118 7.118 0 01.77-3.308zM46.915 52.7H21.4v-7.618h25.514V52.7zM29.992 33.253a3.122 3.122 0 002.017.633 5.379 5.379 0 001.587-.249 5.718 5.718 0 001.451-.658 3.709 3.709 0 00.816-.792 1.48 1.48 0 00.317-.884v-1.768a12.449 12.449 0 00-1.678-.453 8.468 8.468 0 00-1.631-.182 4.308 4.308 0 00-2.63.771 2.337 2.337 0 00-1.043 1.95 2 2 0 00.794 1.632z" fill="#18a3dd" fill-rule="evenodd"/></svg>