<svg width="46" height="65" fill="none" xmlns="http://www.w3.org/2000/svg"><path d="M22.972 65L4.186 59.78 0 12.773h46l-4.19 46.998L22.971 65z" fill="#4353AD"/><path d="M38.222 56.78l3.58-40.162H23v44.386l15.222-4.225z" fill="#485FB5"/><path d="M23 49.023l-.025.007-6.414-1.734-.41-4.597h-5.78l.806 9.052 11.797 3.278.026-.008v-5.998zM8.56 22.383l.523 5.765H23v-5.765H8.56zM9.597 34.05l.516 5.765H23V34.05H9.597z" fill="#EDEDED"/><path d="M27.565 0h6.975v2.54h-4.058v.508h4.058v5.84h-6.975V6.22h4.059v-.508h-4.058V0zm-8.37 0h6.975v2.54h-4.058v.508h4.058v5.84h-6.974V6.22h4.058v-.508h-4.059V0zm-8.37 0h6.976v2.92h-4.058v2.92H17.8v2.92h-6.975V0z" fill="#100F0D"/><path d="M36.366 34.051l1.04-11.668H22.98v5.765h8.115l-.524 5.903h-7.59v5.765h7.09l-.668 7.477-6.423 1.735v5.998l11.806-3.275.086-.974 1.354-15.178.14-1.548z" fill="#fff"/></svg>