<svg width="25" height="21" fill="none" xmlns="http://www.w3.org/2000/svg"><path d="M23.387 0H1.613A1.615 1.615 0 000 1.613v13.71a1.615 1.615 0 001.613 1.613h8.311l-.537 1.612H8.065a.403.403 0 00-.404.404v.806H4.032a.403.403 0 100 .806h17.742a.403.403 0 000-.806H17.34v-.806a.403.403 0 00-.403-.404h-1.323l-.537-1.612h8.311A1.616 1.616 0 0025 15.323V1.613A1.615 1.615 0 0023.387 0zm-6.855 19.355v.403H8.468v-.403h8.064zm-6.295-.807l.538-1.612h3.45l.538 1.612h-4.526zm13.957-3.225a.807.807 0 01-.807.806H1.613a.807.807 0 01-.807-.806v-.807h23.387v.807zM6.837 10.08l-.152 3.629h-.47l-.15-3.63h.772zm-.717-.807l.27-1.613h.122l.27 1.613H6.12zm.33-2.42c-.436 0-.806-.553-.806-1.209 0-.414.423-1.015.806-1.439.345.383.807.996.807 1.44 0 .655-.37 1.209-.806 1.209zm4.389-.806l.047.096v.308H9.274v-.308l.048-.096h1.518zm-1.115-.806l.356-.711.356.71h-.712zm1.162 2.016v6.401c0 .017.001.034.004.05H9.27a.417.417 0 00.003-.05v-6.4h1.613zm3.63-1.613h1.209v.807h-.403a.403.403 0 100 .806h.403v.807h-1.21a.403.403 0 000 .806h1.21v.806h-.403a.403.403 0 100 .807h.403v.806h-1.21a.403.403 0 000 .807h1.21v1.613h-2.823V4.032h2.823v.807h-1.21a.403.403 0 000 .806zm4.838 4.839v3.175c0 .017.001.034.003.05h-1.62a.405.405 0 00.004-.05v-3.175h1.613zm-1.613-.807V9.37l.806-1.612.807 1.612v.308h-1.613zm6.451 4.033h-4.035a.425.425 0 00.003-.05V9.273a.41.41 0 00-.042-.18l-1.21-2.42a.404.404 0 00-.721 0l-1.21 2.42a.406.406 0 00-.043.18v4.385c0 .017.002.034.004.05h-.407V3.63a.403.403 0 00-.403-.403H12.5a.403.403 0 00-.403.403v10.08h-.407a.405.405 0 00.004-.05V6.05a.406.406 0 00-.043-.181l-1.21-2.42a.403.403 0 00-.721 0l-1.21 2.42a.407.407 0 00-.042.18v7.611a.42.42 0 00.003.05h-.978l.168-4.015v-.04a.407.407 0 00-.005-.042V9.61l-.373-2.239c.468-.353.782-.995.782-1.727 0-1.036-1.202-2.184-1.339-2.311a.404.404 0 00-.55 0C6.04 3.46 4.84 4.609 4.84 5.645c0 .732.313 1.374.781 1.727l-.373 2.239a.404.404 0 00-.005.043v.04l.168 4.016H.806V1.613a.807.807 0 01.807-.807h21.774a.807.807 0 01.806.807V13.71z" fill="#000"/><path d="M4.436 14.92h-2.42a.403.403 0 000 .806h2.42a.403.403 0 000-.807zm1.612 0h-.403a.403.403 0 000 .806h.403a.403.403 0 000-.807zm4.032-7.259a.403.403 0 00-.403.403V12.5a.403.403 0 00.807 0V8.064a.403.403 0 00-.403-.403zm8.468 3.226a.404.404 0 00-.403.403v1.21a.403.403 0 00.807 0v-1.21a.403.403 0 00-.404-.403zM2.016 2.42h3.226a.403.403 0 000-.807H2.016a.403.403 0 100 .806zm0 1.21h.807a.403.403 0 100-.807h-.807a.403.403 0 100 .806zm19.354 9.273h1.614a.404.404 0 000-.806H21.37a.403.403 0 000 .806zm1.21-1.209h.404a.403.403 0 100-.807h-.403a.404.404 0 000 .806z" fill="#000"/></svg>