<svg width="25" height="25" fill="none" xmlns="http://www.w3.org/2000/svg"><path d="M22.5 3.75H11.25v.833H22.5V3.75zm-4.167 1.667H11.25v.833h7.083v-.833zm0 1.666H11.25v.834h7.083v-.834zm4.167-5h-7.917v.834H22.5v-.834zm-8.75 0h-.833v.834h.833v-.834zm-.833 14.584h-.834v.833h.834v-.833zM6.961 2.795l-.589-.59-.833.834a.417.417 0 000 .589l.833.833.59-.589-.54-.539.54-.538zm3.334.244l-.834-.834-.589.59.539.538-.539.54.59.588.833-.833a.417.417 0 000-.59zM7.938 1.951l-.834 2.5.79.264.834-2.5-.79-.264zm13.729 10.966V9.583h-.834v3.334H20V8.75h-.833v4.167h-.834v-2.084H17.5v2.084h-.833v-2.5h-.834v2.5H15V11.25h-.833v1.667h-.834v.833H22.5v-.833h-.833z" fill="#000"/><path d="M22.083 0H2.917a2.502 2.502 0 00-2.5 2.5v14.167a2.503 2.503 0 002.5 2.5h5.159L6.409 22.5H4.167a1.25 1.25 0 100 2.5h16.666a1.25 1.25 0 000-2.5h-2.242l-1.667-3.333h5.16a2.503 2.503 0 002.5-2.5V2.5a2.503 2.503 0 00-2.5-2.5zM1.25 5.862l.947 1.128a.42.42 0 00.32.149h1.275c.123 0 .24-.055.319-.149l.947-1.128.935.304.104 1.468c.008.123.07.236.17.308l1.032.75c.1.072.226.097.346.067l1.43-.355.579.795-.78 1.25a.416.416 0 00-.04.35l.394 1.213a.417.417 0 00.24.257l1.365.554v.983l-1.366.554a.414.414 0 00-.24.258L9.102 15h-2.4A3.923 3.923 0 001.25 9.884V5.862zm0 5.013A3.095 3.095 0 015.75 15h-4.5v-4.125zm19.583 12.458a.417.417 0 010 .834H4.167a.417.417 0 010-.834h16.666zM17.66 22.5H7.341l1.667-3.333h6.985l1.666 3.333zm6.091-5.833c0 .92-.746 1.666-1.667 1.666H2.917c-.92 0-1.667-.746-1.667-1.666v-.834h22.5v.834zm0-1.667H10.106l1.3-.527a.417.417 0 00.26-.386v-1.545a.417.417 0 00-.26-.387l-1.448-.585-.274-.844.826-1.325a.417.417 0 00-.017-.465l-.908-1.25a.417.417 0 00-.437-.16l-1.515.375-.716-.52-.11-1.554a.417.417 0 00-.287-.367l-1.469-.478a.42.42 0 00-.448.13L3.6 6.304h-.888L1.708 5.111a.42.42 0 00-.448-.128l-.01.003V2.5c0-.92.746-1.667 1.667-1.667h19.166c.92 0 1.667.747 1.667 1.667V15z" fill="#000"/></svg>