<svg width="46" height="65" fill="none" xmlns="http://www.w3.org/2000/svg"><path d="M4.166 59.78L0 12.773h45.775l-4.17 46.998L22.858 65 4.166 59.78z" fill="#E53D20"/><path d="M22.887 61.004l15.147-4.225 3.564-40.162h-18.71v44.387z" fill="#F15123"/><path d="M22.887 34.051h-7.583l-.523-5.903h8.106v-5.765H8.517l.138 1.546 1.409 15.887h12.823V34.05zm0 14.972l-.025.007-6.382-1.734-.408-4.598h-5.753l.803 9.052 11.739 3.279.026-.008v-5.998z" fill="#EDEDED"/><path d="M4.259 0H7.17v2.895h2.664V0h2.912v8.765H9.835V5.83H7.171v2.935H4.26V0zm12.318 2.907h-2.564V0h8.041v2.907H19.49v5.858h-2.912V2.907zM23.33 0h3.037l1.868 3.08L30.1 0h3.038v8.765h-2.9V4.421l-2.004 3.116h-.05L26.18 4.421v4.344h-2.85V0zm11.258 0h2.913v5.868h4.095v2.897h-7.008V0z" fill="#100F0D"/><path d="M22.867 34.051v5.765h7.057l-.665 7.477-6.392 1.735v5.998l11.748-3.276.086-.974L36.048 35.6l.14-1.548h-13.32zm0-11.668v5.765H36.71l.115-1.296.261-2.923.137-1.546H22.867z" fill="#fff"/></svg>