<svg width="162" height="37" fill="none" xmlns="http://www.w3.org/2000/svg"><path fill-rule="evenodd" clip-rule="evenodd" d="M154.373 2.707l6.766.037s-12.579 17.045-13.606 18.434c-.334.45-.841.935-1.098 1.536-.649 1.512-1.316 4.828-1.316 4.828l-6.191.031s.963-3.456.924-5.298c-.035-1.608-.856-3.214-1.317-4.828-.465-1.632-1.097-4.828-1.097-4.828h6.364l.878 3.512 9.693-13.424z" fill="#1A1918"/><path fill-rule="evenodd" clip-rule="evenodd" d="M141.561 6.301c1.249.753 2.015 4.905 2.015 4.905s-6.533.096-10.089.096h-3.072l-3.731 16.24h-5.705s3.55-17.648 4.389-20.848c.272-1.036 1.861-.858 4.544-.858h4.286c2.768 0 6.003-.353 7.363.465zm-26.563 7.909s.178-1.042-.603-2.249c-.667-1.03-1.284-1.268-3.039-1.323-4.958-.156-4.862 3.518-4.862 3.518l8.504.054zm5.377-4.206c.727 2.62-.658 8.778-.658 8.778s-7.232-.121-11.192 0c-1.232.037-2.706-.134-3.073.439-.516.803.188 2.039.786 2.56.687.602 2.025.67 2.506.732 3.215.408 9.944.105 9.944.105l-1.166 5.161s-9.509.477-14.265-.658c-.939-.224-1.819-.676-2.414-1.317-.162-.175-.303-.414-.456-.62-.123-.165-.48-.707-.64-1.136-1.087-2.894.126-8.44 1.316-11.411.138-.345.311-.781.494-1.152.228-.463.421-.985.603-1.262.123-.19.275-.314.402-.494.147-.213.318-.419.476-.603.439-.51.937-.87 1.536-1.317 1.982-1.483 5.568-2.636 9.876-2.194 1.621.166 4.071.746 5.267 2.414.32.445.478 1.33.658 1.975zm-26.17-4.188l5.532-.033s-3.083 14.627-4.654 21.76h-6.365c-4.448 0-8.41.55-10.094-2.634-1.635-3.092-.075-8.177.658-11.631a1748.48 1748.48 0 011.609-7.442l5.732-.053s-1.62 7.78-2.294 11.664c-.241 1.392-.739 2.702-.22 3.731.495.979 1.186 1.049 3.293 1.097.667.016 2.853 0 2.853 0l3.95-16.459zM68.31 16.35c.578-2.059 1.423-4.29 1.316-6.145-.116-1.984-1.78-3.79-2.853-4.17-3.232-1.14-6.259.455-7.461 1.756-1.557 1.686-2.083 3.654-2.634 6.364-.41 2.013-.746 4.137 0 5.706 1.32 2.774 5.44 2.169 9.875 2.195.659-1.764 1.203-3.746 1.756-5.706zm7.68-8.12c.632 4.595-1.793 9.667-3.463 14.078 1.703.154 3.195-.024 3.303.103.112.165-1.141 5.265-1.578 5.278-1.352.035-5.83.073-7.699.073-6.094 0-11.795.397-14.703-2.634-1.18-1.23-1.997-3.342-2.195-4.828-.329-2.48.084-5.21.659-7.461.52-2.033 1.187-3.95 2.194-5.706C55.07 2.663 59.524-.656 66.992.11c1.449.15 3.53.784 4.828 1.536.09.053.404.303.477.347 1.755 1.117 3.355 3.784 3.693 6.237zM49.026 5.843c-.37 1.678-.738 3.581-1.126 5.24h-6.145c.476-1.839.84-3.667 1.317-5.267 1.966 0 3.794.027 5.954.027zm-7.49 6.777h5.925c-.775 4.288-2.309 11.205-3.511 16.02-.753 3.013-1.256 5.212-3.292 6.803-.183.143-.288.075-.44.22-.375.357-2.11.772-3.072.877-1.562.17-3.329.022-5.249-.017.503-1.837 1.071-4.043 1.519-5.689 4.68.567 4.8-3.858 5.706-8.12.524-2.462 2.113-9.107 2.414-10.095z" fill="#1A1918"/><path fill-rule="evenodd" clip-rule="evenodd" d="M27.71 23.812l-.127.329c-2.164 4.213-5.998 6.798-11.467 6.912-2.556.053-4.992-.603-6.584-1.316-3.434-1.543-6.322-4.404-7.9-7.462-2.263-4.382-2.67-10.479 2.034-15.032.073 0-.57.987-.498.987l-.13.421c-3.39 10.615 7.056 19.712 17.21 18.672 2.44-.25 5.553-1.587 7.462-3.511z" fill="#21609B"/><path fill-rule="evenodd" clip-rule="evenodd" d="M21.565 19.422c2.555.018 5.223-1.176 6.803-2.852-1.382 3.509-5.385 5.764-10.753 5.047-4.494-.601-8.776-5.124-9.217-9.656-.323-3.298.827-5.267 2.721-7.655-.658 1.25-.904 2.212-.966 2.827-.72 7.134 5.7 12.252 11.412 12.29z" fill="#21609B"/><path fill-rule="evenodd" clip-rule="evenodd" d="M28.112 10.56c-.398.912-2.684 2.632-3.694 2.847-3.998.852-6.56-1.044-7.9-3.202-.2-.322-.569-1.202-.635-1.426-.52-1.769-.28-4.444 1.271-5.83-.467 1.318-.535 2.847-.29 3.841.15.602.604 1.651 1.058 2.311.827 1.203 1.352 1.495 2.414 2.134.479.287.992.518 1.214.581 1.007.296 3.133 1.078 6.562-1.255z" fill="#21609B"/></svg>