<svg width="65" height="65" fill="none" xmlns="http://www.w3.org/2000/svg"><path d="M0 0h65v65H0V0z" fill="#F7DF1E"/><path d="M17.09 54.319l4.975-3.01c.96 1.7 1.833 3.14 3.927 3.14 2.007 0 3.272-.785 3.272-3.839V29.841h6.109v20.856c0 6.326-3.709 9.206-9.12 9.206-4.886 0-7.722-2.53-9.162-5.585m21.599-.654l4.974-2.88c1.31 2.139 3.011 3.71 6.021 3.71 2.532 0 4.145-1.266 4.145-3.011 0-2.095-1.657-2.837-4.45-4.058l-1.527-.655c-4.407-1.876-7.33-4.232-7.33-9.206 0-4.581 3.49-8.072 8.944-8.072 3.884 0 6.676 1.353 8.683 4.887l-4.756 3.054c-1.047-1.876-2.181-2.618-3.926-2.618-1.79 0-2.924 1.135-2.924 2.618 0 1.833 1.135 2.575 3.752 3.709l1.527.654c5.193 2.226 8.116 4.494 8.116 9.6 0 5.497-4.32 8.508-10.123 8.508-5.672 0-9.337-2.706-11.125-6.24" fill="#000"/></svg>