<svg width="14" height="25" fill="none" xmlns="http://www.w3.org/2000/svg"><path d="M11.719 0H1.563A1.565 1.565 0 000 1.563v21.093a1.565 1.565 0 001.563 1.563h10.156a1.565 1.565 0 001.562-1.563V1.563A1.564 1.564 0 0011.72 0zm-3.25.781l-.22.781H4.993l-.196-.78H8.47zM12.5 22.656a.783.783 0 01-.781.782H1.563a.783.783 0 01-.782-.782V1.563A.782.782 0 011.562.78h2.43l.317 1.267a.39.39 0 00.378.296h3.858a.39.39 0 00.376-.285L9.28.781h2.438a.782.782 0 01.781.781v21.094z" fill="#000"/><path d="M4.688 21.875H1.953a.39.39 0 000 .781h2.734a.39.39 0 100-.781zm1.562 0h-.39a.39.39 0 000 .781h.39a.39.39 0 100-.781zM8.013 9.821a.39.39 0 00-.535.134l-2.344 3.906a.39.39 0 10.67.402l2.343-3.906a.391.391 0 00-.134-.536zm1.277.091a.39.39 0 00-.61.488l1.367 1.71-1.368 1.708a.39.39 0 00.61.489l1.563-1.954a.391.391 0 000-.488L9.289 9.912zm-5.298 4.395a.391.391 0 00.61-.489L3.235 12.11l1.367-1.71a.39.39 0 10-.61-.488l-1.563 1.953a.39.39 0 000 .489l1.563 1.953z" fill="#000"/></svg>