<svg width="160" height="45" fill="none" xmlns="http://www.w3.org/2000/svg"><path fill-rule="evenodd" clip-rule="evenodd" d="M148.973 18.573c-.144.029-.288.342-.288.512a337.539 337.539 0 00-.058 6.2c0 .058.086.171.173.171.432.029 1.471.057 2.365.057 1.24 0 1.961-.17 2.364-.34 1.038-.513 1.529-1.622 1.529-2.845 0-2.76-1.961-3.812-4.874-3.812a4.702 4.702 0 00-1.211.057zm7.44 12.714c0-2.815-2.105-4.38-5.912-4.38-.173 0-1.384-.028-1.672.029-.087.028-.202.085-.202.17 0 2.02-.029 5.234.058 6.485.057.54.461 1.309.951 1.536.519.285 1.702.341 2.509.341 2.278 0 4.268-1.251 4.268-4.18zM143.09 17.01c.288 0 1.153.085 3.374.085 2.105 0 3.778-.056 5.825-.056 2.509 0 5.97.881 5.97 4.579 0 1.82-1.298 3.27-3 3.982-.086.028-.086.085 0 .113 2.423.598 4.557 2.077 4.557 4.864 0 2.73-1.73 4.466-4.239 5.547-1.529.654-3.432.881-5.364.881-1.471 0-5.422-.17-7.613-.113-.231-.086.202-1.11.403-1.28.52-.029.923-.057 1.471-.228.779-.199.865-.426.981-1.593.057-.995.057-4.522.057-7.025 0-3.442.029-5.774 0-6.912-.028-.881-.346-1.166-.98-1.337a52.739 52.739 0 00-1.961-.284c-.144-.142.346-1.11.519-1.223zm-16.64 17.692c.693.54 2.048.767 3.259.767 1.557 0 3.115-.284 4.614-1.62 1.529-1.366 2.596-3.47 2.596-6.827 0-3.214-1.24-5.831-3.778-7.367-1.442-.882-3.288-1.251-5.422-1.251-.634 0-1.24.028-1.615.199-.086.057-.288.313-.288.455-.058.569-.058 4.949-.058 7.509 0 2.645 0 6.342.058 6.77 0 .426.202 1.08.634 1.365zm-6.546-17.692c.548 0 2.653.085 3.663.085 1.816 0 3.114-.085 6.546-.085 2.884 0 5.306.768 7.036 2.218 2.105 1.792 3.201 4.267 3.201 7.282 0 4.295-1.99 6.77-3.979 8.192-1.99 1.45-4.586 2.303-8.277 2.303-1.961 0-5.335-.057-8.132-.085h-.029c-.144-.256.231-1.251.461-1.28.75-.085.952-.114 1.327-.256.605-.227.721-.54.808-1.593.086-1.962.057-4.323.057-6.997 0-1.905.029-5.631-.029-6.826-.086-.995-.519-1.251-1.384-1.422-.433-.085-1.009-.2-1.817-.284-.115-.2.404-1.081.548-1.252z" fill="#8E714E"/><path fill-rule="evenodd" clip-rule="evenodd" d="M85.01 35.81c-.72-.086-1.24-.2-1.874-.484-.087-.057-.231-.341-.231-.455-.058-.995-.058-3.84-.058-5.745 0-1.536-.26-2.873-.922-3.812-.78-1.08-1.904-1.706-3.346-1.706-1.269 0-2.97.853-4.383 2.048-.029.028-.26.227-.23-.086 0-.313.057-.938.086-1.365.029-.398-.202-.597-.202-.597-.923.455-3.518 1.052-4.47 1.137-.692.143-.865.797-.144 1.024h.029c.778.228 1.297.484 1.701.74.288.227.26.54.26.796.028 2.134.028 5.404-.058 7.197-.029.71-.23.966-.75 1.08l.058-.028c-.404.085-.721.17-1.212.227-.172.17-.172 1.081 0 1.28.318 0 1.99-.085 3.375-.085 1.903 0 2.884.085 3.374.085.202-.227.26-1.08.144-1.28-.548-.028-.952-.085-1.326-.199-.52-.114-.664-.37-.693-.967-.057-1.507-.057-4.693-.057-6.855 0-.597.173-.882.346-1.052.663-.569 1.73-.967 2.681-.967.923 0 1.529.284 1.99.654.635.512.837 1.252.923 1.792.144 1.223.087 3.64.087 5.745 0 1.138-.087 1.423-.52 1.565-.201.085-.72.2-1.326.256-.202.199-.144 1.08 0 1.28.836 0 1.817-.086 3.259-.086 1.788 0 2.941.086 3.403.086.144-.17.201-.996.086-1.223zM93 24.945c-1.529 0-2.48 1.166-2.48 2.986 0 1.849.835 3.982 3.2 3.982.404 0 1.154-.17 1.5-.569.548-.512.923-1.536.923-2.617 0-2.36-1.183-3.782-3.143-3.782zm-.203 12.571c-.576 0-.98.17-1.24.313-1.21.768-1.759 1.508-1.759 2.39 0 .824.317 1.478 1.01 2.047.836.711 1.99 1.053 3.46 1.053 2.942 0 4.24-1.565 4.24-3.1 0-1.081-.549-1.793-1.673-2.19-.808-.342-2.278-.513-4.038-.513zM93 44.911c-1.76 0-3.029-.37-4.124-1.194-1.067-.797-1.529-1.991-1.529-2.816 0-.227.058-.853.577-1.422.317-.341 1.01-.996 2.653-2.105.058-.028.086-.057.086-.114s-.057-.114-.115-.142c-1.355-.512-1.759-1.337-1.874-1.792v-.057c-.03-.17-.087-.34.173-.512.202-.142.49-.313.807-.511.49-.285 1.01-.598 1.327-.854.057-.057.057-.114.057-.17 0-.058-.057-.114-.115-.143-2.019-.654-3.028-2.133-3.028-4.352 0-1.45.663-2.759 1.846-3.583.807-.626 2.826-1.394 4.152-1.394h.087c1.355.028 2.105.313 3.172.683.577.199 1.125.284 1.875.284 1.124 0 1.614-.341 2.018-.74.029.057.087.2.116.57.028.37-.087.91-.376 1.308-.23.313-.749.54-1.268.54h-.145a6.518 6.518 0 01-.75-.114l-.115.057c-.028.057 0 .114.03.2l.028.056c.058.256.173 1.024.173 1.223 0 2.333-.951 3.356-1.96 4.124a6.693 6.693 0 01-3.375 1.28c-.029 0-.144 0-.403.029-.145 0-.347.028-.376.028h-.028c-.231.057-.808.342-.808.825 0 .427.26.939 1.5 1.024.26.029.519.029.807.057 1.644.114 3.692.256 4.643.569 1.327.483 2.163 1.65 2.163 3.043 0 2.105-1.529 4.068-4.066 5.29-1.24.541-2.48.825-3.835.825zm16.437-19.824c-.606 0-1.154.142-1.557.426-1.125.683-1.702 2.048-1.702 4.04 0 3.725 1.904 6.342 4.614 6.342.808 0 1.442-.227 1.99-.682.836-.683 1.269-2.049 1.269-3.954 0-3.698-1.874-6.172-4.614-6.172zm.519 12.173c-4.902 0-6.661-3.555-6.661-6.883 0-2.332.951-4.124 2.854-5.404 1.356-.825 2.971-1.28 4.413-1.28 3.748 0 6.373 2.645 6.373 6.457 0 2.588-1.038 4.636-3.028 5.887-.952.626-2.595 1.223-3.951 1.223zm-51.39-12.173c-.605 0-1.153.142-1.557.426-1.124.683-1.701 2.048-1.701 4.04 0 3.725 1.903 6.342 4.614 6.342.808 0 1.442-.227 1.99-.682.836-.683 1.269-2.049 1.269-3.954 0-3.698-1.846-6.172-4.614-6.172zm.52 12.173c-4.903 0-6.662-3.555-6.662-6.883 0-2.332.952-4.124 2.855-5.404 1.356-.825 2.97-1.28 4.412-1.28 3.75 0 6.374 2.645 6.374 6.457 0 2.588-1.039 4.636-3.028 5.887-.923.626-2.567 1.223-3.951 1.223zm-32.962-.284c-.058-.085-.115-.341-.087-.654 0-.228.058-.37.087-.427.605-.085.923-.17 1.269-.256.577-.142.807-.455.836-1.166.087-1.707.087-4.95.058-7.196v-.057c0-.256 0-.569-.317-.796a6.545 6.545 0 00-1.73-.74c-.26-.085-.433-.228-.404-.398 0-.17.173-.37.548-.427.951-.085 3.431-.682 4.412-1.109.057.057.144.228.144.455l-.029.313c-.029.313-.058.683-.058 1.052 0 .114.116.2.231.2a.414.414 0 00.173-.058c1.846-1.422 3.518-1.934 4.383-1.934 1.414 0 2.51.655 3.346 2.02.057.085.115.114.202.114.057 0 .144-.029.173-.086 1.701-1.28 3.403-2.048 4.527-2.048 2.682 0 4.268 1.963 4.268 5.29 0 .94 0 2.162-.029 3.272 0 .995-.028 1.905-.028 2.56 0 .142.201.597.519.682.403.2.951.285 1.672.398h.03c.057.2-.059.939-.174 1.081-.173 0-.433 0-.72-.028a43.13 43.13 0 00-2.192-.057c-1.788 0-2.711.028-3.605.085-.058-.227-.087-.91 0-1.08.519-.086.778-.171 1.096-.257.576-.17.72-.426.75-1.166 0-.54.115-5.148-.058-6.257-.173-1.138-1.039-2.475-2.942-2.475-.72 0-1.845.285-2.941 1.11a.502.502 0 00-.116.284v.028c.116.598.116 1.28.116 2.333v1.848c0 1.28-.03 2.475 0 3.385 0 .626.375.768.692.882.173.028.288.057.432.085.26.057.52.114.923.2.058.113.058.483-.029.796-.029.17-.086.256-.115.284-.98-.028-1.99-.057-3.46-.057-.433 0-1.183.029-1.818.029-.519 0-1.009.028-1.297.028-.029-.057-.087-.256-.087-.569 0-.256.058-.455.116-.512.144-.028.26-.056.404-.056.345-.057.634-.114.922-.171.49-.142.663-.398.692-1.024.087-1.422.173-5.49-.029-6.514-.345-1.65-1.297-2.474-2.826-2.474-.893 0-2.018.427-2.941 1.11-.144.113-.26.397-.26.653v1.679c0 2.047 0 4.607.03 5.717.028.34.143.74.807.881.144.029.375.086.663.114l.52.085c.057.171.028.854-.087 1.081-.289 0-.635-.028-1.039-.028a47.786 47.786 0 00-2.249-.057c-1.01 0-1.73.028-2.307.057-.404-.057-.721-.057-1.067-.057z" fill="#442D22"/><path fill-rule="evenodd" clip-rule="evenodd" d="M10.954 43.802l-1.182-.398s.144-5.945-2.019-6.371c-1.442-1.65.231-69.97 5.422-.228 0 0-1.788.882-2.105 2.39-.347 1.479-.116 4.607-.116 4.607z" fill="#fff"/><path fill-rule="evenodd" clip-rule="evenodd" d="M10.954 43.802l-1.182-.398s.144-5.945-2.019-6.371c-1.442-1.65.231-69.97 5.422-.228 0 0-1.788.882-2.105 2.39-.347 1.479-.116 4.607-.116 4.607z" fill="#A6A385"/><path fill-rule="evenodd" clip-rule="evenodd" d="M11.589 38.057s10.353-6.713 7.93-20.679C17.183 7.224 11.675 3.897 11.07 2.617 10.407 1.707 9.773.114 9.773.114l.433 28.244c0 .028-.895 8.646 1.384 9.699z" fill="#fff"/><path fill-rule="evenodd" clip-rule="evenodd" d="M11.589 38.057s10.353-6.713 7.93-20.679C17.183 7.224 11.675 3.897 11.07 2.617 10.407 1.707 9.773.114 9.773.114l.433 28.244c0 .028-.895 8.646 1.384 9.699z" fill="#499D4A"/><path fill-rule="evenodd" clip-rule="evenodd" d="M9.166 38.426S-.552 31.884.025 20.366C.572 8.845 7.436 3.185 8.762 2.161c.866-.91.895-1.252.952-2.162.606 1.28.49 19.142.577 21.247.26 8.106-.462 15.644-1.125 17.18z" fill="#fff"/><path fill-rule="evenodd" clip-rule="evenodd" d="M9.166 38.426S-.552 31.884.025 20.366C.572 8.845 7.436 3.185 8.762 2.161c.866-.91.895-1.252.952-2.162.606 1.28.49 19.142.577 21.247.26 8.106-.462 15.644-1.125 17.18z" fill="#58AA50"/></svg>