<svg width="72" height="65" fill="none" xmlns="http://www.w3.org/2000/svg"><path d="M.212 32.43c0 5.43 5.277 10.499 13.597 13.356-1.662 8.404-.298 15.178 4.256 17.817 4.682 2.713 11.656.835 18.276-4.979 6.453 5.58 12.974 7.776 17.525 5.128 4.677-2.72 6.1-9.953 4.392-18.62 8.665-2.878 13.512-7.201 13.512-12.703 0-5.304-5.286-9.893-13.494-12.732 1.838-9.024.281-15.634-4.462-18.382-4.573-2.65-11.17-.34-17.718 5.385C29.285.623 22.752-1.233 18.014 1.524c-4.569 2.657-5.872 9.554-4.205 18.114C5.77 22.454.212 27.146.212 32.429z" fill="#fff"/><path d="M56.538 22.517a42.26 42.26 0 00-2.046-.648c.116-.474.222-.942.316-1.402 1.549-7.554.536-13.639-2.921-15.642-3.315-1.921-8.737.082-14.213 4.87-.526.46-1.055.948-1.582 1.46a38.762 38.762 0 00-1.053-.978c-5.74-5.12-11.492-7.278-14.946-5.269-3.312 1.927-4.293 7.647-2.899 14.806.135.691.292 1.397.47 2.115-.814.233-1.6.48-2.352.744-6.728 2.357-11.025 6.05-11.025 9.882 0 3.958 4.613 7.927 11.62 10.334.554.19 1.128.37 1.719.54a42.065 42.065 0 00-.5 2.28c-1.328 7.034-.29 12.62 3.013 14.534 3.412 1.977 9.138-.056 14.714-4.953.441-.387.883-.798 1.326-1.228a41.82 41.82 0 001.718 1.575c5.401 4.67 10.736 6.556 14.036 4.636 3.409-1.983 4.516-7.983 3.078-15.283a36.32 36.32 0 00-.381-1.707c.402-.12.797-.242 1.182-.37 7.285-2.426 12.025-6.347 12.025-10.358 0-3.845-4.435-7.564-11.299-9.938z" fill="#53C1DE"/><path d="M54.958 40.223c-.347.116-.704.227-1.067.336-.805-2.559-1.89-5.28-3.218-8.09 1.267-2.744 2.31-5.43 3.092-7.972.65.19 1.282.389 1.89.599 5.88 2.034 9.468 5.042 9.468 7.36 0 2.468-3.875 5.672-10.165 7.767zm-2.61 5.197c.636 3.228.727 6.146.305 8.428-.378 2.05-1.14 3.417-2.08 3.964-2.003 1.165-6.286-.35-10.905-4.343a38.989 38.989 0 01-1.598-1.464c1.79-1.968 3.58-4.256 5.327-6.797 3.072-.274 5.975-.721 8.607-1.333.13.526.245 1.041.344 1.545zM25.953 57.61c-1.957.695-3.515.715-4.457.17-2.005-1.163-2.838-5.647-1.702-11.663.13-.689.286-1.396.464-2.12 2.604.579 5.485.995 8.564 1.246 1.759 2.486 3.6 4.771 5.456 6.772-.406.394-.81.768-1.211 1.12-2.466 2.166-4.937 3.703-7.114 4.476zm-9.167-17.402c-3.099-1.064-5.658-2.448-7.412-3.957-1.576-1.356-2.372-2.703-2.372-3.796 0-2.325 3.45-5.29 9.204-7.307a39.16 39.16 0 012.187-.691c.796 2.6 1.839 5.317 3.098 8.065-1.276 2.789-2.334 5.55-3.137 8.18a34.544 34.544 0 01-1.568-.494zm3.073-21.018c-1.195-6.133-.402-10.76 1.594-11.92 2.127-1.238 6.828.526 11.783 4.947.317.282.635.578.954.884-1.847 1.992-3.671 4.26-5.414 6.732-2.989.278-5.85.726-8.48 1.324a40.032 40.032 0 01-.437-1.967zm27.412 6.802a86.833 86.833 0 00-1.932-3.194c2.028.258 3.97.6 5.795 1.018a58.466 58.466 0 01-2.034 5.499 95.415 95.415 0 00-1.829-3.323zM36.093 15.05a58.234 58.234 0 013.74 4.536 79.683 79.683 0 00-7.512-.002 60.088 60.088 0 013.772-4.534zm-11.25 10.96a80.628 80.628 0 00-1.795 3.302 60.45 60.45 0 01-2.02-5.526 60.906 60.906 0 015.762-.994 80.205 80.205 0 00-1.948 3.217zm2.005 16.301a57.53 57.53 0 01-5.857-.946 61.449 61.449 0 012.06-5.638 80.787 80.787 0 003.797 6.584zm9.32 7.74a61.166 61.166 0 01-3.824-4.598c1.217.048 2.457.073 3.718.073 1.296 0 2.576-.03 3.836-.086a57.96 57.96 0 01-3.73 4.611zM49.126 35.63a58.074 58.074 0 012.134 5.618 57.424 57.424 0 01-5.929 1.015 93.701 93.701 0 001.951-3.25 86.848 86.848 0 001.844-3.383zm-4.195 2.021a89.484 89.484 0 01-3.05 4.943 81.372 81.372 0 01-5.819.205c-1.977 0-3.901-.062-5.754-.183a77.457 77.457 0 01-3.106-4.95 76.85 76.85 0 01-2.711-5.145 77.426 77.426 0 012.703-5.148 76.74 76.74 0 013.081-4.929 76.538 76.538 0 015.787-.218c1.968 0 3.908.075 5.798.22a82.282 82.282 0 013.062 4.912 89.64 89.64 0 012.74 5.124 82.333 82.333 0 01-2.731 5.169zm5.6-30.463c2.128 1.233 2.956 6.207 1.619 12.728-.086.416-.182.84-.286 1.27-2.637-.612-5.5-1.067-8.497-1.35-1.746-2.498-3.556-4.77-5.372-6.736.488-.472.976-.922 1.461-1.347 4.692-4.103 9.077-5.723 11.075-4.565z" fill="#fff"/><path d="M36.062 26.753c3.134 0 5.675 2.553 5.675 5.702 0 3.15-2.54 5.703-5.675 5.703-3.134 0-5.675-2.553-5.675-5.703 0-3.149 2.541-5.702 5.675-5.702z" fill="#53C1DE"/></svg>