<svg width="21" height="25" fill="none" xmlns="http://www.w3.org/2000/svg"><path d="M17.717 16.333l-1.467-.43-3.193-2.086v-.478a4.248 4.248 0 001.677-2.984.976.976 0 00.819-.961V6.401a.722.722 0 00.301-.59V4.29l2.203-.376a.77.77 0 00.648-.715.77.77 0 00-.542-.799L10.736.037a.777.777 0 00-.474 0L2.836 2.399a.77.77 0 00-.543.799.771.771 0 00.3.565v1.991h-.019a.76.76 0 00-.758.759V7.5l-.49 2.874a.815.815 0 00.804.952h1.658a.815.815 0 00.803-.952L4.101 7.5v-.988a.76.76 0 00-.758-.759h-.018V3.98l1.82.31v1.52c0 .241.118.456.301.589l.001 1.68v1.314c0 .484.355.887.819.961a4.25 4.25 0 001.675 2.983v.48l-3.192 2.085-1.466.43a3.724 3.724 0 00-2.676 3.575V21a.366.366 0 00.732 0v-1.092c0-1.32.885-2.5 2.15-2.872l1.367-.401 5.457 3.243a.37.37 0 00.374 0l5.458-3.243 1.366.4a3.01 3.01 0 012.15 2.873v3.537c0 .454-.37.823-.823.823h-1.614v-1.579a.366.366 0 10-.732 0v1.579H4.507v-1.579a.366.366 0 10-.733 0v1.579H2.162a.824.824 0 01-.823-.823v-.734a.366.366 0 00-.732 0v.734c0 .857.697 1.555 1.555 1.555h16.676c.858 0 1.555-.698 1.555-1.555v-3.537a3.724 3.724 0 00-2.676-3.575zm-13.93-5.739H2.13a.083.083 0 01-.082-.096l.443-2.6h.935l.443 2.6a.083.083 0 01-.082.096zM3.37 6.513v.653h-.82v-.653c0-.015.01-.027.025-.027h.769c.014 0 .026.012.026.027zM9.19 18.22l.146.224-3.739-2.221 2.373-1.55a7.692 7.692 0 001.22 3.547zm-.002-1.58a9.414 9.414 0 002.624 0c-.166.41-.372.805-.616 1.18l-.696 1.07-.696-1.07a6.994 6.994 0 01-.616-1.18zm2.622 1.58a7.69 7.69 0 001.22-3.547l2.373 1.55-3.739 2.221.146-.224zm2.142-11.684h.868v1.177h-.431a.438.438 0 01-.437-.437v-.74zM3.058 3.097L10.485.735a.048.048 0 01.029 0l7.427 2.362c.015.005.036.012.034.05-.003.038-.025.042-.04.044l-2.456.418-.922-.114a.366.366 0 00-.09.727l.655.081v1.502H5.878V4.302l3.79-.469a6.783 6.783 0 011.663 0l1.434.178a.366.366 0 00.09-.727l-1.434-.177a7.513 7.513 0 00-1.843 0L5.52 3.61l-2.456-.42c-.016-.002-.037-.006-.04-.044-.003-.038.018-.045.034-.05zm3.121 4.617V6.537h.87v.74a.438.438 0 01-.438.437h-.432zm.806 2.453a.567.567 0 00-.564-.532.242.242 0 01-.242-.241v-.948h.432a1.17 1.17 0 001.17-1.17v-.739h5.438v.74c0 .644.525 1.17 1.17 1.17h.432v.947a.242.242 0 01-.242.241.567.567 0 00-.564.532 3.527 3.527 0 01-3.515 3.298 3.527 3.527 0 01-3.515-3.298zm3.515 4.03c.651 0 1.27-.149 1.825-.414v.232c0 .627-.084 1.244-.247 1.84a8.65 8.65 0 01-3.156 0 6.978 6.978 0 01-.247-1.84l-.002-.023v-.209a4.228 4.228 0 001.827.414z" fill="#000"/></svg>