<svg xmlns="http://www.w3.org/2000/svg" width="122" height="24" viewBox="0 0 122 24">
    <g fill="#FFF" fill-rule="evenodd">
        <path d="M11.025 0L.02 6.823 0 13.061 4.999 9.956 4.999 9.953 11.005 6.229 16.987 9.989 16.987 9.993 21.986 6.895 21.986 6.89zM16.988 14.045L16.988 14.046 10.981 17.77 4.999 14.009 4.999 14.008 0 17.107 0 17.109 10.962 24 21.967 17.176 21.986 10.939zM56.041 16.068L56.034 18.122 47.444 18.096 47.483 6.041 55.916 6.066 55.909 8.121 49.881 8.103 49.872 11.006 55.081 11.022 55.075 12.924 49.865 12.908 49.855 16.049zM65.539 10.539L65.515 18.261 63.149 18.253 63.187 6.204 65.021 6.21 71.339 14.138 71.363 6.246 73.729 6.253 73.691 18.286 71.771 18.28zM90.419 8.291L86.485 8.279 86.453 18.286 84.079 18.278 84.11 8.272 80.176 8.26 80.183 6.204 90.425 6.235z"/>
        <g>
            <path d="M73.233 9.07c0-.215-.036-.423-.11-.622-.075-.2-.176-.373-.302-.52-.127-.149-.276-.266-.45-.352-.172-.086-.362-.129-.57-.13l-3.672-.01-.01 3.188 3.55.01c.22.001.425-.038.616-.117.19-.079.355-.19.494-.33.14-.143.25-.31.33-.503.082-.193.123-.397.124-.613zm-5.088-6.545l-.01 3.052 3.187.01c.404 0 .747-.135 1.031-.406.284-.272.427-.647.428-1.124.002-.467-.127-.836-.386-1.11-.259-.273-.579-.41-.96-.412l-3.29-.01zm7.494 6.996c-.002.512-.107.96-.316 1.346-.21.386-.496.71-.86.97-.365.26-.787.458-1.267.593-.48.134-.99.201-1.533.2l-5.94-.019L65.76.506l6.581.02c.427.001.814.093 1.16.276.345.183.639.42.88.71.242.291.429.621.56.99.132.371.197.743.196 1.119-.002.59-.154 1.144-.456 1.66-.302.517-.741.9-1.32 1.147.704.207 1.26.575 1.668 1.105.408.53.611 1.193.609 1.988zM90.865 10.625L90.859 12.688 82.321 12.662 82.359.556 90.741.582 90.734 2.645 84.742 2.627 84.733 5.542 89.911 5.558 89.905 7.468 84.727 7.452 84.717 10.606zM8.476 3.37c-.083-.082-.233-.193-.452-.334-.219-.14-.485-.278-.798-.413-.314-.135-.655-.25-1.021-.345-.367-.094-.74-.142-1.12-.143-.675-.002-1.179.119-1.511.363-.333.244-.5.587-.501 1.03-.001.257.06.47.184.64.124.17.304.318.541.448.236.129.535.246.896.352.361.106.779.219 1.252.336 1.157.288 2.41.548 3.294 1.407.995.966.989 2.828.36 3.985-.257.472-.602.853-1.035 1.143-.434.29-.932.502-1.495.634-.563.132-1.153.198-1.769.196-.948-.003-1.883-.146-2.807-.429-.923-.283-1.751-.681-2.484-1.197L1.1 8.964c.107.105.3.243.577.413.278.17.606.34.985.51.378.171.799.315 1.26.433.462.118.935.178 1.421.18.931.002 2.12-.247 2.19-1.334.036-.565-.462-.922-.935-1.156-.284-.141-.706-.251-1.109-.369-.402-.118-.882-.223-1.38-.365-.603-.165-1.127-.345-1.57-.538-.444-.194-.814-.423-1.11-.686-.295-.263-.516-.567-.663-.912-.147-.344-.22-.756-.218-1.234.002-.63.122-1.19.36-1.679.239-.49.57-.896.99-1.222C2.32.68 2.81.434 3.369.266 3.924.1 4.522.016 5.162.018 6.052.021 6.87.16 7.614.437c.746.276 1.397.602 1.952.977L8.476 3.37z" transform="translate(31.079 5.714)"/>
        </g>
    </g>
</svg>
