<svg xmlns="http://www.w3.org/2000/svg" width="109" height="38" viewBox="0 0 109 38">
    <g fill="none" fill-rule="evenodd">
        <rect width="108.5" height="37.5" x=".25" y=".25" stroke="#FFF" stroke-width=".5" rx="2"/>
        <path fill="#FFF" d="M42.421 27.403h-1.838l-1.008-3.247h-3.5l-.96 3.247h-1.79l3.468-11.056h2.143l3.485 11.056zm5.707-8.136c.916 0 1.681.372 2.294 1.115.613.745.92 1.723.92 2.937 0 1.356-.358 2.428-1.072 3.215-.64.7-1.434 1.05-2.382 1.05-1.023 0-1.758-.377-2.206-1.132h-.033v4.2h-1.726v-8.596c0-.853-.022-1.728-.064-2.625h1.518l.097 1.264h.032c.576-.952 1.45-1.428 2.622-1.428zm8.937 0c.916 0 1.68.372 2.294 1.115.612.745.919 1.723.919 2.937 0 1.356-.358 2.428-1.072 3.215-.64.7-1.434 1.05-2.382 1.05-1.023 0-1.758-.377-2.205-1.132h-.033v4.2H52.86v-8.596c0-.853-.022-1.728-.064-2.625h1.518l.097 1.264h.032c.575-.952 1.449-1.428 2.622-1.428zm23.753.001c1.14 0 2.058.388 2.75 1.165.662.754.993 1.726.993 2.919 0 1.225-.342 2.231-1.024 3.018-.715.81-1.664 1.214-2.846 1.214-1.14 0-2.048-.388-2.725-1.164-.677-.776-1.015-1.756-1.015-2.936 0-1.236.348-2.248 1.047-3.034.697-.788 1.638-1.182 2.82-1.182zm-13.41-3.083c.98 0 1.795.175 2.445.525l-.431 1.444c-.607-.339-1.294-.508-2.062-.508-.608 0-1.082.153-1.422.46-.288.272-.432.606-.432 1 0 .437.165.799.495 1.083.287.262.81.546 1.567.853.928.383 1.608.83 2.046 1.344.437.512.655 1.153.655 1.917 0 .94-.319 1.706-.957 2.296-.702.646-1.68.968-2.935.968-1.16 0-2.09-.23-2.793-.689l.4-1.476c.758.47 1.59.706 2.495.706.65 0 1.157-.151 1.52-.452.362-.3.543-.704.543-1.208 0-.448-.15-.826-.448-1.133-.297-.306-.794-.591-1.487-.855-1.886-.722-2.829-1.78-2.829-3.17 0-.909.33-1.654.992-2.234.66-.58 1.539-.87 2.638-.87zm6.665 1.26v1.984h1.903v1.331h-1.903v3.871c0 .985.335 1.476 1.007 1.476.309 0 .565-.027.767-.082l.048 1.345c-.34.13-.788.196-1.342.196-.682 0-1.215-.213-1.6-.64-.382-.426-.575-1.143-.575-2.149V20.76h-1.134v-1.33h1.134v-1.46l1.695-.524zm20.59 1.807c1.12 0 1.968.427 2.544 1.28.456.676.685 1.514.685 2.508 0 .317-.02.585-.063.803H92.65c.02.788.27 1.39.751 1.806.437.371 1.001.557 1.694.557.767 0 1.466-.125 2.096-.377l.27 1.23c-.735.329-1.603.492-2.605.492-1.204 0-2.15-.364-2.838-1.09-.687-.727-1.031-1.704-1.031-2.928 0-1.202.32-2.204.96-3.002.67-.852 1.577-1.279 2.717-1.279zm-4.923.015c.16 0 .304.012.432.033v1.689c-.171-.033-.353-.05-.544-.05-.608 0-1.077.236-1.408.707-.287.415-.431.94-.431 1.574v4.183h-1.726l.017-5.461c0-.92-.022-1.756-.065-2.51h1.503l.064 1.525h.047c.182-.524.47-.946.863-1.263.385-.284.8-.427 1.248-.427zm-8.983 1.296c-.694 0-1.221.319-1.583.954-.31.527-.463 1.168-.463 1.925 0 .735.153 1.366.463 1.891.373.636.895.954 1.568.954.659 0 1.176-.324 1.55-.97.317-.536.478-1.174.478-1.908 0-.735-.153-1.366-.463-1.892-.362-.636-.88-.954-1.55-.954zm-33.189.114c-.426 0-.813.147-1.158.435-.347.29-.574.67-.68 1.14-.053.22-.08.4-.08.54v1.33c0 .58.174 1.069.52 1.469.347.4.797.599 1.35.599.65 0 1.157-.258 1.519-.771.362-.515.544-1.193.544-2.035 0-.776-.17-1.416-.512-1.92-.373-.524-.874-.787-1.503-.787zm8.937 0c-.427 0-.813.147-1.16.435-.346.29-.572.67-.678 1.14-.053.22-.08.4-.08.54v1.33c0 .58.173 1.069.518 1.469.346.398.796.599 1.352.599.65 0 1.156-.258 1.518-.771.363-.515.544-1.193.544-2.035 0-.776-.17-1.416-.513-1.92-.373-.524-.872-.787-1.501-.787zm-18.687-2.853c.266 1.093.447 1.787.543 2.082l.91 2.887H36.38l.895-2.887c.234-.918.405-1.612.511-2.082zm56.717 2.656c-.564 0-1.024.24-1.374.722-.288.383-.458.843-.511 1.378h3.596c.011-.524-.102-.978-.336-1.361-.298-.493-.757-.739-1.375-.739zM40.761 9.471c.52 0 .939.192 1.255.576.301.373.453.855.453 1.445 0 .607-.156 1.104-.468 1.494-.326.4-.759.6-1.299.6-.52 0-.935-.19-1.244-.576-.308-.384-.462-.869-.462-1.453 0-.611.158-1.112.477-1.502.32-.389.748-.584 1.288-.584zm16.81 0c.521 0 .939.192 1.256.576.301.373.452.855.452 1.445 0 .607-.155 1.104-.467 1.494-.326.4-.76.6-1.299.6-.521 0-.936-.19-1.244-.576-.308-.384-.463-.869-.463-1.453 0-.611.16-1.112.478-1.502.319-.389.748-.584 1.287-.584zm4.08 0c.927 0 1.392.544 1.392 1.632v1.453c0 .395.018.709.051.941h-.707l-.059-.454h-.022c-.242.362-.587.544-1.036.544-.334 0-.605-.12-.809-.358-.185-.216-.278-.484-.278-.803 0-.482.181-.85.544-1.104.363-.255.873-.38 1.53-.374v-.073c0-.52-.246-.78-.737-.78-.35 0-.658.098-.924.293l-.16-.576c.329-.227.736-.341 1.216-.341zm5.895-1.73v4.693c0 .384.009.739.028 1.063h-.7l-.037-.633h-.021c-.224.482-.604.723-1.14.723-.426 0-.782-.187-1.064-.56-.282-.373-.423-.858-.423-1.453 0-.639.153-1.156.46-1.551.297-.369.66-.553 1.094-.553.476 0 .81.178.999.536h.015V7.74h.789zm5.063 1.73c.52 0 .939.192 1.255.576.3.373.452.855.452 1.445 0 .607-.156 1.104-.467 1.494-.327.4-.759.6-1.3.6-.52 0-.934-.19-1.244-.576-.308-.384-.462-.869-.462-1.453 0-.611.159-1.112.477-1.502.32-.389.748-.584 1.289-.584zm10.382-.902v.982h.868v.657h-.867v1.917c0 .488.154.731.46.731.14 0 .258-.013.35-.04l.02.665c-.155.065-.36.098-.612.098-.311 0-.553-.106-.728-.317-.176-.21-.264-.566-.264-1.064v-1.99H81.7v-.657h.518v-.723l.773-.26zm7.872.894c.51 0 .897.211 1.159.633.211.335.316.75.316 1.242 0 .157-.011.29-.03.397h-2.364c.01.39.123.688.342.893.2.185.458.277.774.277.35 0 .67-.062.956-.187l.124.61c-.336.162-.732.243-1.19.243-.55 0-.982-.18-1.295-.54-.314-.36-.47-.843-.47-1.449 0-.595.145-1.09.438-1.486.305-.422.718-.633 1.24-.633zm-55.486-1.48c.861 0 1.51.209 1.948.626.49.471.736 1.145.736 2.022 0 .985-.265 1.727-.795 2.225-.492.46-1.19.69-2.094.69-.448 0-.832-.022-1.153-.065V8.097c.42-.075.87-.114 1.358-.114zM51.23 9.468c.33 0 .606.12.825.358.272.292.408.728.408 1.307v2.364h-.788v-2.26c0-.696-.238-1.044-.714-1.044-.234 0-.423.095-.57.287-.145.191-.219.417-.219.676v2.34h-.788V10.68c0-.347-.01-.723-.029-1.13h.693l.037.618h.022c.092-.192.228-.35.408-.477.214-.147.453-.222.715-.222zm-7.18.083l.4 1.876c.097.444.177.867.241 1.267h.014c.059-.33.156-.75.293-1.258l.503-1.884h.643l.482 1.843c.116.45.211.883.284 1.3h.022c.053-.406.134-.84.24-1.3l.43-1.843h.775l-1.11 3.945h-.722l-.46-1.713c-.116-.428-.21-.853-.285-1.275h-.014c-.068.434-.163.858-.285 1.275l-.488 1.713h-.73L43.24 9.551h.81zm10.587-1.81v5.756h-.787V7.741h.787zm22.684 1.727c.33 0 .605.12.824.358.273.292.408.728.408 1.307v2.364h-.787v-2.26c0-.696-.238-1.044-.716-1.044-.233 0-.422.095-.568.287-.146.191-.22.417-.22.676v2.34h-.788V10.68c0-.347-.01-.723-.028-1.13h.692l.037.618h.022c.092-.192.23-.35.408-.477.215-.147.453-.222.716-.222zm8.419-1.727v2.378h.015c.248-.433.604-.649 1.065-.649.326 0 .596.119.81.358.268.297.402.739.402 1.323v2.346h-.79v-2.243c0-.707-.237-1.061-.713-1.061-.366 0-.615.205-.752.615-.024.086-.037.191-.037.315v2.373h-.788V7.741h.788zM72.58 10.11c-.316 0-.557.158-.723.472-.142.26-.212.578-.212.953 0 .364.071.676.212.937.17.314.408.472.715.472.301 0 .538-.16.708-.48.145-.266.219-.58.219-.945 0-.364-.07-.676-.212-.937-.166-.314-.4-.472-.707-.472zm-10.304 1.422c-.87-.017-1.304.248-1.304.795 0 .206.05.36.151.463.102.103.23.154.385.154.173 0 .335-.061.482-.183.148-.122.24-.277.273-.467.009-.042.013-.094.013-.154v-.608zm-4.733-1.422c-.317 0-.558.158-.723.472-.141.26-.211.578-.211.953 0 .364.07.676.211.937.171.314.409.472.716.472.3 0 .536-.16.706-.48.147-.266.219-.58.219-.945 0-.364-.07-.676-.211-.937-.165-.314-.401-.472-.707-.472zm-16.81 0c-.317 0-.558.158-.723.472-.142.26-.212.578-.212.953 0 .364.07.676.212.937.17.314.408.472.715.472.3 0 .537-.16.707-.48.146-.266.219-.58.219-.945 0-.364-.07-.676-.211-.937-.166-.314-.401-.472-.708-.472zm25.19.041c-.294 0-.525.13-.694.39-.168.26-.253.593-.253 1 0 .39.081.706.243.95.17.259.4.388.689.388.258 0 .465-.108.623-.324.151-.2.226-.442.226-.723v-.658c0-.114-.008-.206-.022-.276-.044-.21-.14-.388-.285-.532-.147-.143-.323-.215-.527-.215zm-30.48-1.478c-.249 0-.46.018-.636.057v4.092c.097.017.275.025.533.025.603 0 1.069-.187 1.397-.56.328-.374.493-.918.493-1.633 0-.638-.152-1.128-.456-1.47-.303-.34-.747-.51-1.332-.51zm55.362 1.397c-.257 0-.467.119-.627.358-.13.19-.208.416-.234.682h1.641c.006-.26-.045-.485-.152-.674-.137-.244-.346-.366-.628-.366zM20.764 12.3l.284.017c.716.02 2.753.278 4.067 2.162-.106.062-2.427 1.403-2.401 4.16.027 3.108 2.606 4.258 2.939 4.393l.035.013c-.017.077-.456 1.576-1.547 3.098-.912 1.34-1.867 2.65-3.383 2.674-1.473.034-1.97-.852-3.659-.852-1.705 0-2.233.828-3.646.886-1.445.052-2.549-1.431-3.493-2.759-1.888-2.712-3.358-7.641-1.387-10.996.955-1.645 2.696-2.704 4.557-2.733 1.446-.029 2.788.96 3.677.96.871 0 2.53-1.183 4.241-1.006zm.302-5.263c.145 1.29-.375 2.562-1.135 3.497-.793.92-2.062 1.623-3.298 1.533-.162-1.242.464-2.562 1.165-3.368.793-.914 2.168-1.614 3.268-1.662z"/>
    </g>
</svg>
