<svg xmlns="http://www.w3.org/2000/svg" width="111" height="38" viewBox="0 0 111 38">
    <defs>
        <linearGradient id="8v10b3dcla" x1="60.981%" x2="26.597%" y1="4.979%" y2="71.921%">
            <stop offset="0%" stop-color="#00A0FF"/>
            <stop offset=".657%" stop-color="#00A1FF"/>
            <stop offset="26.01%" stop-color="#00BEFF"/>
            <stop offset="51.22%" stop-color="#00D2FF"/>
            <stop offset="76.04%" stop-color="#00DFFF"/>
            <stop offset="100%" stop-color="#00E3FF"/>
        </linearGradient>
        <linearGradient id="vhvarwo27b" x1="107.622%" x2="-130.536%" y1="50.001%" y2="50.001%">
            <stop offset="0%" stop-color="#FFE000"/>
            <stop offset="40.87%" stop-color="#FFBD00"/>
            <stop offset="77.54%" stop-color="orange"/>
            <stop offset="100%" stop-color="#FF9C00"/>
        </linearGradient>
        <linearGradient id="8r3dr7ibhc" x1="86.253%" x2="-50.188%" y1="30.826%" y2="136.362%">
            <stop offset="0%" stop-color="#FF3A44"/>
            <stop offset="100%" stop-color="#C31162"/>
        </linearGradient>
        <linearGradient id="7hlb1arqpd" x1="-18.77%" x2="42.12%" y1="-12.045%" y2="35.025%">
            <stop offset="0%" stop-color="#32A071"/>
            <stop offset="6.85%" stop-color="#2DA771"/>
            <stop offset="47.62%" stop-color="#15CF74"/>
            <stop offset="80.09%" stop-color="#06E775"/>
            <stop offset="100%" stop-color="#00F076"/>
        </linearGradient>
    </defs>
    <g fill="none" fill-rule="evenodd">
        <g>
            <g transform="translate(-80 -458) translate(80 458)">
                <rect width="110.5" height="37.5" x=".25" y=".25" stroke="#FFF" stroke-width=".5" rx="2"/>
                <g fill-rule="nonzero">
                    <g fill="#FFF" stroke="#FFF" stroke-width=".2">
                        <path d="M5.063 2.75c0 .663-.197 1.192-.591 1.579-.442.466-1.026.703-1.735.703-.687 0-1.262-.237-1.743-.71C.513 3.846.276 3.254.276 2.558c0-.703.237-1.287.718-1.761C1.474.324 2.05.087 2.737.087c.339 0 .662.063.97.197.307.135.552.308.741.53l-.418.418c-.315-.37-.741-.56-1.293-.56-.497 0-.931.173-1.294.529C1.08 1.548.9 2.007.9 2.567c0 .561.181 1.02.544 1.367.363.348.797.53 1.294.53.528 0 .97-.174 1.325-.53.228-.23.362-.553.394-.964h-1.72v-.569h2.296c.015.119.031.237.031.348zM8.699.774L6.546.774 6.546 2.275 8.486 2.275 8.486 2.844 6.546 2.844 6.546 4.345 8.699 4.345 8.699 4.929 5.939 4.929 5.939.19 8.699.19 8.699.774zM11.262 4.929L10.655 4.929 10.655.774 9.33.774 9.33.19 12.579.19 12.579.774 11.254.774 11.254 4.929zM14.937 4.929L14.937.19 15.544.19 15.544 4.929zM18.241 4.929L17.634 4.929 17.634.774 16.309.774 16.309.19 19.558.19 19.558.774 18.234.774 18.234 4.929zM25.718 4.313c-.465.482-1.041.72-1.735.72-.694 0-1.27-.238-1.735-.72-.466-.482-.694-1.066-.694-1.754 0-.695.228-1.28.694-1.753.465-.482 1.04-.72 1.735-.72.686 0 1.262.238 1.735.72.465.482.702 1.066.702 1.753-.008.696-.237 1.28-.702 1.754zm-3.02-.395c.346.356.78.53 1.285.53.505 0 .938-.174 1.285-.53.347-.355.529-.806.529-1.359 0-.552-.174-1.003-.529-1.358-.347-.356-.78-.53-1.285-.53-.505 0-.939.174-1.286.53-.347.355-.528.806-.528 1.358 0 .553.181 1.004.528 1.36zM27.271 4.929L27.271.19 28.013.19 30.316 3.879 30.339 3.879 30.316 2.962 30.316.19 30.923.19 30.923 4.929 30.292 4.929 27.887 1.066 27.863 1.066 27.887 1.983 27.887 4.937 27.271 4.937z" transform="translate(9.133 8.444) translate(25.468 .059)"/>
                    </g>
                    <path fill="#FFF" d="M46.872 11.9c-1.854 0-3.368 1.415-3.368 3.358 0 1.935 1.514 3.357 3.368 3.357 1.853 0 3.367-1.422 3.367-3.357 0-1.943-1.514-3.357-3.367-3.357zm0 5.396c-1.018 0-1.893-.837-1.893-2.038 0-1.209.875-2.038 1.893-2.038 1.017 0 1.893.83 1.893 2.038 0 1.2-.884 2.038-1.893 2.038zm-7.35-5.395c-1.854 0-3.368 1.414-3.368 3.357 0 1.935 1.514 3.357 3.368 3.357 1.853 0 3.367-1.422 3.367-3.357 0-1.943-1.514-3.357-3.367-3.357zm0 5.395c-1.018 0-1.893-.837-1.893-2.038 0-1.209.875-2.038 1.893-2.038 1.017 0 1.892.83 1.892 2.038 0 1.2-.875 2.038-1.892 2.038zm-8.739-4.36v1.421h3.407c-.102.798-.37 1.39-.773 1.794-.496.497-1.27 1.042-2.626 1.042-2.098 0-3.738-1.69-3.738-3.791 0-2.102 1.64-3.792 3.738-3.792 1.128 0 1.956.442 2.563 1.019l1.002-1.004c-.852-.813-1.98-1.437-3.573-1.437-2.87 0-5.284 2.338-5.284 5.221 0 2.876 2.414 5.222 5.284 5.222 1.554 0 2.721-.505 3.636-1.461.939-.94 1.23-2.268 1.23-3.334 0-.332-.023-.64-.079-.893h-4.787v-.008zm35.734 1.105c-.276-.75-1.128-2.14-2.87-2.14-1.728 0-3.163 1.358-3.163 3.357 0 1.88 1.42 3.357 3.328 3.357 1.538 0 2.429-.94 2.792-1.485l-1.144-.766c-.378.56-.899.932-1.648.932-.75 0-1.286-.34-1.625-1.019l4.488-1.856-.158-.38zm-4.574 1.114c-.04-1.295 1.001-1.959 1.75-1.959.584 0 1.081.292 1.247.711l-2.997 1.248zm-3.644 3.263h1.475V8.543H58.3v9.875zm-2.413-5.767h-.055c-.331-.395-.962-.75-1.767-.75-1.68 0-3.217 1.477-3.217 3.373 0 1.88 1.537 3.35 3.217 3.35.797 0 1.436-.356 1.767-.767h.047v.482c0 1.287-.686 1.975-1.79 1.975-.9 0-1.459-.648-1.688-1.193l-1.285.537c.37.893 1.348 1.983 2.973 1.983 1.727 0 3.186-1.02 3.186-3.5v-6.035h-1.396v.545h.008zm-1.696 4.645c-1.017 0-1.869-.853-1.869-2.022 0-1.185.852-2.046 1.87-2.046 1.001 0 1.79.869 1.79 2.046.008 1.169-.781 2.022-1.79 2.022zm19.236-8.753H69.9v9.875h1.475v-3.745h2.059c1.632 0 3.233-1.185 3.233-3.065s-1.617-3.065-3.241-3.065zm.031 4.756h-2.09v-3.39h2.09c1.104 0 1.727.917 1.727 1.691 0 .775-.623 1.699-1.727 1.699zm9.101-1.414c-1.065 0-2.169.474-2.626 1.509l1.31.545c.275-.545.796-.727 1.34-.727.757 0 1.538.458 1.546 1.272v.102c-.269-.15-.836-.379-1.538-.379-1.412 0-2.84.774-2.84 2.22 0 1.32 1.152 2.172 2.445 2.172.986 0 1.538-.442 1.877-.963h.048v.766h1.42v-3.784c.007-1.754-1.302-2.733-2.982-2.733zm-.181 5.411c-.481 0-1.152-.245-1.152-.837 0-.759.836-1.051 1.562-1.051.647 0 .954.142 1.34.332-.11.908-.898 1.556-1.75 1.556zm8.344-5.198l-1.688 4.282h-.047l-1.751-4.282H85.65l2.626 5.988-1.499 3.326h1.538l4.046-9.314h-1.64zm-13.25 6.32h1.475V8.543h-1.475v9.875z" transform="translate(9.133 8.444)"/>
                    <g>
                        <path fill="url(#8v10b3dcla)" d="M1.136.616C.906.861.773 1.24.773 1.722v17.474c0 .49.134.87.363 1.106l.055.055 9.771-9.78v-.236L1.191.553l-.055.063z" transform="translate(9.133 8.444) translate(.231 .059)"/>
                        <path fill="url(#vhvarwo27b)" d="M14.22 13.84l-3.258-3.262v-.237l3.257-3.263.071.04 3.857 2.196c1.104.624 1.104 1.65 0 2.283l-3.857 2.196-.07.047z" transform="translate(9.133 8.444) translate(.231 .059)"/>
                        <path fill="url(#8r3dr7ibhc)" d="M14.29 13.793l-3.328-3.334-9.826 9.843c.362.387.962.435 1.64.047l11.514-6.556" transform="translate(9.133 8.444) translate(.231 .059)"/>
                        <path fill="url(#7hlb1arqpd)" d="M14.29 7.125L2.768.57C2.09.182 1.491.229 1.128.616l9.834 9.843 3.328-3.334z" transform="translate(9.133 8.444) translate(.231 .059)"/>
                        <g fill="#000">
                            <path d="M14.22.292L2.767 6.81c-.639.364-1.214.34-1.577.008l-.055.056.055.055c.37.332.938.355 1.577-.008L14.29.363l-.07-.07z" opacity=".2" transform="translate(9.133 8.444) translate(.231 .059) translate(0 13.43)"/>
                            <path d="M1.136 6.762c-.23-.245-.363-.624-.363-1.106v.119c0 .49.134.869.363 1.106l.055-.056-.055-.063z" opacity=".12" transform="translate(9.133 8.444) translate(.231 .059) translate(0 13.43)"/>
                        </g>
                        <path fill="#000" d="M18.147 11.486l-3.936 2.236.071.07 3.857-2.195c.552-.316.828-.727.828-1.138-.04.371-.315.743-.82 1.027z" opacity=".12" transform="translate(9.133 8.444) translate(.231 .059)"/>
                        <path fill="#FFF" d="M2.768.68l15.379 8.752c.497.285.78.648.828 1.027 0-.41-.276-.83-.828-1.137L2.768.569C1.664-.055.765.466.765 1.73v.119c0-1.272.907-1.794 2.003-1.17z" opacity=".25" transform="translate(9.133 8.444) translate(.231 .059)"/>
                    </g>
                </g>
            </g>
        </g>
    </g>
</svg>
