<?xml version="1.0" standalone="no"?>
<!DOCTYPE svg PUBLIC "-//W3C//DTD SVG 20010904//EN"
 "http://www.w3.org/TR/2001/REC-SVG-20010904/DTD/svg10.dtd">
<svg version="1.0" xmlns="http://www.w3.org/2000/svg"
 width="1024.000000pt" height="1024.000000pt" viewBox="0 0 1024.000000 1024.000000"
 preserveAspectRatio="xMidYMid meet">

<g transform="translate(0.000000,1024.000000) scale(0.100000,-0.100000)"
fill="#000000" stroke="none">
<path d="M5019 9835 c-62 -20 -136 -87 -165 -150 -66 -141 4 -318 153 -382 56
-24 157 -21 215 6 133 63 199 213 154 348 -47 141 -213 224 -357 178z"/>
<path d="M7500 9581 c-106 -34 -160 -106 -160 -213 1 -69 27 -125 80 -170 108
-93 267 -59 333 71 41 83 33 165 -25 236 -52 63 -159 99 -228 76z"/>
<path d="M2589 9565 c-59 -19 -123 -87 -139 -146 -38 -142 66 -282 210 -282
87 0 163 49 205 132 26 52 18 156 -18 209 -53 81 -162 118 -258 87z"/>
<path d="M6861 8589 c-162 -27 -281 -171 -281 -339 0 -136 72 -250 195 -307
51 -24 73 -28 145 -28 72 0 94 4 145 28 208 97 262 366 108 537 -54 60 -116
94 -198 109 -32 6 -59 10 -59 10 -1 -1 -25 -5 -55 -10z"/>
<path d="M3243 8580 c-95 -19 -193 -94 -241 -185 -24 -45 -27 -61 -27 -150 0
-95 2 -103 34 -163 52 -96 126 -150 237 -173 111 -23 229 16 310 103 67 72 88
125 88 233 1 79 -3 96 -27 145 -51 99 -129 161 -236 186 -62 15 -77 16 -138 4z"/>
<path d="M5032 8299 c-122 -24 -222 -102 -279 -217 -36 -73 -38 -80 -38 -177
0 -97 2 -104 37 -177 45 -91 103 -147 196 -191 61 -29 75 -32 162 -31 74 0
108 5 153 23 82 32 175 121 213 203 26 57 29 73 29 173 0 98 -3 116 -27 167
-54 115 -169 204 -292 227 -67 12 -93 12 -154 0z"/>
<path d="M8867 7616 c-79 -29 -149 -102 -173 -182 -40 -133 13 -261 137 -329
47 -26 64 -30 134 -30 70 0 87 4 134 30 92 51 143 139 144 247 0 119 -73 226
-181 262 -55 19 -144 20 -195 2z"/>
<path d="M1197 7610 c-115 -29 -199 -127 -214 -248 -18 -158 118 -306 282
-305 202 1 336 206 256 390 -26 58 -93 126 -146 149 -45 18 -131 25 -178 14z"/>
<path d="M4204 7211 c-189 -30 -364 -143 -470 -303 -131 -197 -151 -464 -50
-674 113 -235 328 -378 586 -391 127 -6 223 12 325 60 147 71 251 173 325 319
55 110 74 205 67 342 -6 130 -40 238 -108 343 -88 134 -248 248 -404 288 -75
19 -204 26 -271 16z"/>
<path d="M5829 7210 c-260 -41 -476 -226 -555 -474 -118 -374 103 -771 486
-872 80 -21 243 -23 320 -5 318 77 532 350 531 674 0 117 -16 190 -66 295
-107 227 -323 371 -580 386 -44 3 -105 1 -136 -4z"/>
<path d="M7419 6907 c-104 -30 -208 -116 -253 -210 -114 -243 21 -518 283
-572 138 -29 274 16 374 125 77 83 101 147 102 271 0 90 -2 99 -37 171 -69
138 -192 219 -343 225 -45 1 -100 -3 -126 -10z"/>
<path d="M2586 6890 c-237 -75 -351 -344 -240 -563 79 -155 262 -249 426 -219
211 39 352 223 335 435 -21 252 -280 424 -521 347z"/>
<path d="M3406 5799 c-195 -26 -373 -137 -482 -301 -135 -202 -152 -471 -44
-686 116 -229 325 -366 580 -379 137 -7 226 12 350 73 76 38 109 62 170 123
136 138 190 263 198 453 5 144 -13 235 -70 351 -59 118 -180 238 -298 295
-135 66 -266 89 -404 71z"/>
<path d="M6574 5790 c-197 -51 -354 -180 -444 -364 -55 -110 -74 -203 -68
-335 13 -283 182 -513 450 -613 108 -40 264 -50 382 -23 428 95 658 573 468
970 -69 144 -182 254 -334 325 -129 61 -314 77 -454 40z"/>
<path d="M8635 5457 c-97 -33 -172 -98 -214 -187 -22 -47 -26 -69 -26 -145 0
-78 4 -98 28 -146 66 -136 220 -216 364 -189 188 34 315 212 282 394 -29 163
-158 275 -323 283 -41 1 -88 -3 -111 -10z"/>
<path d="M1410 5441 c-53 -17 -107 -51 -147 -93 -136 -140 -130 -357 14 -488
75 -69 144 -93 248 -88 135 8 229 69 287 186 30 60 33 76 33 152 0 76 -3 92
-33 152 -59 120 -153 179 -292 184 -47 2 -96 0 -110 -5z"/>
<path d="M9925 5331 c-178 -82 -162 -354 24 -410 85 -25 159 -6 223 56 66 64
85 172 44 251 -53 103 -188 151 -291 103z"/>
<path d="M135 5311 c-90 -41 -143 -131 -132 -223 23 -189 259 -267 384 -125
41 47 56 96 51 168 -11 145 -171 241 -303 180z"/>
<path d="M4165 4384 c-134 -29 -295 -125 -378 -226 -58 -71 -106 -157 -134
-243 -23 -70 -27 -96 -26 -205 0 -108 3 -136 26 -205 15 -44 43 -109 64 -144
46 -79 160 -194 235 -239 130 -77 302 -113 446 -93 162 23 283 83 397 196 214
214 263 519 128 795 -38 78 -62 110 -128 176 -67 68 -98 90 -176 127 -152 74
-299 93 -454 61z"/>
<path d="M5781 4384 c-134 -29 -291 -126 -376 -232 -104 -131 -155 -276 -155
-441 0 -119 17 -190 75 -306 80 -162 218 -284 389 -342 74 -26 93 -28 226 -28
138 1 149 2 228 32 201 77 350 227 417 421 36 104 45 265 20 376 -33 149 -130
303 -248 392 -165 125 -375 172 -576 128z"/>
<path d="M7435 4125 c-27 -8 -53 -14 -56 -15 -26 -1 -136 -91 -169 -138 -165
-230 -60 -539 211 -623 78 -24 150 -24 231 1 146 45 253 167 280 322 48 275
-228 527 -497 453z"/>
<path d="M2640 4119 c-125 -24 -256 -132 -301 -246 -18 -46 -23 -78 -24 -154
0 -90 2 -99 37 -171 45 -91 103 -147 196 -191 61 -29 75 -32 167 -32 93 0 105
2 168 33 123 61 204 169 227 304 36 205 -106 408 -316 453 -77 16 -89 17 -154
4z"/>
<path d="M8923 3180 c-225 -46 -305 -325 -136 -481 60 -55 104 -72 188 -73
150 0 264 101 282 252 21 177 -157 338 -334 302z"/>
<path d="M1189 3157 c-170 -64 -244 -241 -164 -396 50 -99 136 -151 250 -151
115 0 200 52 251 153 92 179 -32 392 -234 404 -41 2 -81 -2 -103 -10z"/>
<path d="M4990 2725 c-288 -81 -390 -445 -186 -663 195 -208 536 -153 659 106
29 61 32 75 32 168 0 95 -2 103 -37 176 -45 90 -103 148 -194 190 -80 37 -189
46 -274 23z"/>
<path d="M6836 2324 c-98 -31 -168 -93 -213 -189 -23 -50 -28 -73 -28 -140 0
-71 4 -89 33 -147 38 -77 92 -130 171 -166 80 -37 192 -37 272 0 78 36 133 89
170 163 88 179 15 378 -170 463 -68 31 -166 38 -235 16z"/>
<path d="M3223 2316 c-153 -50 -243 -170 -243 -326 0 -259 262 -419 496 -305
68 33 137 110 164 183 29 76 25 196 -8 263 -58 118 -165 189 -295 195 -43 3
-89 -2 -114 -10z"/>
<path d="M7535 1101 c-107 -27 -175 -112 -175 -219 0 -78 30 -136 93 -179 93
-62 196 -53 277 26 75 72 89 165 40 260 -41 82 -150 133 -235 112z"/>
<path d="M2635 1091 c-207 -52 -239 -316 -50 -413 53 -28 137 -27 192 0 162
83 164 310 3 392 -43 22 -105 31 -145 21z"/>
<path d="M5050 951 c-84 -18 -161 -76 -202 -154 -18 -34 -23 -58 -23 -127 0
-75 3 -91 27 -131 118 -201 408 -192 504 16 94 201 -91 441 -306 396z"/>
</g>
</svg>
