<?xml version="1.0" encoding="UTF-8" standalone="no"?>
<svg
   xmlns:dc="http://purl.org/dc/elements/1.1/"
   xmlns:cc="http://creativecommons.org/ns#"
   xmlns:rdf="http://www.w3.org/1999/02/22-rdf-syntax-ns#"
   xmlns:svg="http://www.w3.org/2000/svg"
   xmlns="http://www.w3.org/2000/svg"
   xmlns:sodipodi="http://sodipodi.sourceforge.net/DTD/sodipodi-0.dtd"
   xmlns:inkscape="http://www.inkscape.org/namespaces/inkscape"
   id="Layer_1"
   data-name="Layer 1"
   width="639.93"
   height="729.76"
   viewBox="0 0 639.93 729.76"
   version="1.1"
   sodipodi:docname="cardano_logo-freelogovectors.net_.svg"
   inkscape:version="0.92.4 (5da689c313, 2019-01-14)">
  <metadata
     id="metadata86">
    <rdf:RDF>
      <cc:Work
         rdf:about="">
        <dc:format>image/svg+xml</dc:format>
        <dc:type
           rdf:resource="http://purl.org/dc/dcmitype/StillImage" />
      </cc:Work>
    </rdf:RDF>
  </metadata>
  <sodipodi:namedview
     pagecolor="#ffffff"
     bordercolor="#666666"
     borderopacity="1"
     objecttolerance="10"
     gridtolerance="10"
     guidetolerance="10"
     inkscape:pageopacity="0"
     inkscape:pageshadow="2"
     inkscape:window-width="742"
     inkscape:window-height="480"
     id="namedview84"
     showgrid="false"
     inkscape:zoom="0.32339399"
     inkscape:cx="319.965"
     inkscape:cy="364.88"
     inkscape:window-x="278"
     inkscape:window-y="193"
     inkscape:window-maximized="0"
     inkscape:current-layer="Layer_1" />
  <defs
     id="defs4">
    <style
       id="style2">.cls-1{fill:#0033ad;}.cls-2{fill:#0c1d2a;}</style>
  </defs>
  <title
     id="title6">cardano_logo-freelogovectors.net_</title>
  <path
     class="cls-1"
     d="m 317.2522,62.724069 c 11.91,-4.25 25.15,7.24 22.93,19.61 -1,11.42 -14.31,18.780001 -24.69,14.28 -9.62,-3.49 -13.72,-15.82 -9.31,-24.75 a 18.52,18.52 0 0 1 11.07,-9.14 z"
     id="path8"
     inkscape:connector-curvature="0"
     style="fill:#0033ad" />
  <path
     class="cls-1"
     d="m 165.5422,79.524069 c 10.35,-3.48 21.05,7.45 17.57,17.76 -2.55,10.730001 -18.38,13.540001 -24.77,4.780001 -6.28,-7.400001 -2.28,-20.230001 7.2,-22.540001 z"
     id="path10"
     inkscape:connector-curvature="0"
     style="fill:#0033ad" />
  <path
     class="cls-1"
     d="m 468.9622,79.724069 c 8.3,-4.39 19.61,1.55 20.39,11 2,10.810001 -10.95,19.930001 -20.48,14.460001 -10.33,-4.46 -10.26,-21.100001 0.09,-25.460001 z"
     id="path12"
     inkscape:connector-curvature="0"
     style="fill:#0033ad" />
  <path
     class="cls-1"
     d="m 429.7322,140.98407 c 13.26,-3.87 27.89,7.2 27.41,21.11 0.38,13.71 -14.11,25 -27.33,21.06 -12.07,-2.65 -19.21,-16.54 -15.19,-28.05 a 21.78,21.78 0 0 1 15.11,-14.12 z"
     id="path14"
     inkscape:connector-curvature="0"
     style="fill:#0033ad" />
  <path
     class="cls-1"
     d="m 201.0622,142.53407 c 11.28,-5.23 25.83,1.42 29.41,13.27 4.17,11.73 -3.86,25.78 -16.08,28 -11.87,3 -25,-6 -26.14,-18.27 a 21.72,21.72 0 0 1 12.81,-23 z"
     id="path16"
     inkscape:connector-curvature="0"
     style="fill:#0033ad" />
  <path
     class="cls-1"
     d="m 313.7322,159.84407 c 13.05,-5.22 29.33,2.57 33.2,16.13 4.47,13 -3.31,28.59 -16.64,32.24 -13.2,4.62 -29,-3.84 -32.33,-17.46 -3.9,-12.4 3.55,-26.72 15.77,-30.91 z"
     id="path18"
     inkscape:connector-curvature="0"
     style="fill:#0033ad" />
  <path
     class="cls-1"
     d="m 76.762203,202.17407 c 10.53,-3.73 23.289997,4.76 23.249997,16.1 1.32,11 -9.729997,20.95 -20.579997,18.8 -10.57,-1.24 -18,-13.12 -14.44,-23.17 a 17.62,17.62 0 0 1 11.77,-11.73 z"
     id="path20"
     inkscape:connector-curvature="0"
     style="fill:#0033ad" />
  <path
     class="cls-1"
     d="m 555.7322,201.90407 c 10.7,-5.22 24.79,2.73 25.33,14.73 1.89,13.69 -14.63,24.69 -26.51,17.46 -12.81,-6.09 -12.16,-27.14 1.18,-32.19 z"
     id="path22"
     inkscape:connector-curvature="0"
     style="fill:#0033ad" />
  <path
     class="cls-1"
     d="m 260.9622,227.99407 a 43.19,43.19 0 0 1 53.54,50.23 c -3.48,20.42 -23.37,36.18 -44.06,34.88 -20.27,-0.14 -38.61,-16.66 -41.22,-36.69 -3.7,-21.14 10.84,-43.5 31.74,-48.42 z"
     id="path24"
     inkscape:connector-curvature="0"
     style="fill:#0033ad" />
  <path
     class="cls-1"
     d="m 361.5822,227.95407 c 13.84,-3.85 29.49,-0.61 40.35,8.9 17.43,14.48 19.85,43 5.14,60.24 -12.69,16.18 -37.45,20.72 -55.08,10.18 -15.95,-8.7 -24.73,-28.3 -21,-46 a 43.32,43.32 0 0 1 30.59,-33.32 z"
     id="path26"
     inkscape:connector-curvature="0"
     style="fill:#0033ad" />
  <path
     class="cls-1"
     d="m 165.3122,246.42407 c 15,-4.64 32.23,7.28 32.37,23.1 1.41,13.74 -10.46,27.06 -24.32,27 -13.31,1.15 -26.14,-10.16 -26.53,-23.53 -1.29,-11.84 7.06,-23.59 18.48,-26.57 z"
     id="path28"
     inkscape:connector-curvature="0"
     style="fill:#0033ad" />
  <path
     class="cls-1"
     d="m 465.2922,246.16407 c 13.61,-5.1 30.15,4.21 32.93,18.43 3.29,12.91 -5.19,27.39 -18.2,30.49 -12.56,3.72 -27.16,-3.92 -31,-16.52 -4.66,-12.84 3.04,-28.6 16.27,-32.4 z"
     id="path30"
     inkscape:connector-curvature="0"
     style="fill:#0033ad" />
  <path
     class="cls-1"
     d="m 416.1522,314.89407 c 14.77,-2.81 30.88,2.25 40.7,13.79 14.5,15.54 14.44,41.88 0.07,57.46 -12.53,14.65 -35.21,18.84 -52.22,9.84 -15.69,-7.72 -25.37,-25.66 -23.28,-43 1.47,-18.57 16.42,-34.9 34.73,-38.09 z"
     id="path32"
     inkscape:connector-curvature="0"
     style="fill:#0033ad" />
  <path
     class="cls-1"
     d="m 208.1322,316.61407 a 44.74,44.74 0 0 1 31,1.64 43.39,43.39 0 0 1 13.45,69.87 c -14.75,15.79 -41.57,17.46 -58.12,3.6 -10.4,-8.42 -17,-21.74 -16.08,-35.23 -0.09,-17.9 12.76,-34.63 29.75,-39.88 z"
     id="path34"
     inkscape:connector-curvature="0"
     style="fill:#0033ad" />
  <path
     class="cls-1"
     d="m 93.722203,336.66407 c 13.489997,-2.84 26.999997,9.57 25.419997,23.21 -0.56,12.6 -13.6,22.44 -25.859997,19.67 a 21.71,21.71 0 0 1 -17.65,-21.34 c -0.22,-10.3 7.81,-20.1 18.09,-21.54 z"
     id="path36"
     inkscape:connector-curvature="0"
     style="fill:#0033ad" />
  <path
     class="cls-1"
     d="m 540.3522,336.94407 c 10.94,-4.49 24.91,1.19 28.57,12.68 5.24,12.74 -4.65,28.87 -18.63,29.11 -12.59,1.63 -24.3,-9.74 -23.6,-22.27 a 21.89,21.89 0 0 1 13.66,-19.52 z"
     id="path38"
     inkscape:connector-curvature="0"
     style="fill:#0033ad" />
  <path
     class="cls-1"
     d="m 623.9322,343.59407 c 10,-4 21.33,5.81 18.72,16.19 -1.55,10.47 -15.94,15.11 -23.41,7.73 -8.02,-6.48 -5.18,-20.94 4.69,-23.92 z"
     id="path40"
     inkscape:connector-curvature="0"
     style="fill:#0033ad" />
  <path
     class="cls-1"
     d="m 11.782203,345.24407 c 10,-4.93 22.37,5.58 19.23,16.23 -1.72,10.4 -16.09,14.58 -23.4399996,7.3 -7.44999997,-6.39 -5.29,-20.32 4.2099996,-23.53 z"
     id="path42"
     inkscape:connector-curvature="0"
     style="fill:#0033ad" />
  <path
     class="cls-1"
     d="m 264.2022,403.07407 c 15.37,-2.89 32,2.85 41.85,15.09 12.34,15 13,38.21 1,53.56 -11.58,16.06 -34.77,21.79 -52.64,13.38 -17.63,-7.64 -28.25,-28 -24.72,-46.87 2.75,-17.41 17.16,-32.1 34.51,-35.16 z"
     id="path44"
     inkscape:connector-curvature="0"
     style="fill:#0033ad" />
  <path
     class="cls-1"
     d="m 364.6122,403.07407 a 44.24,44.24 0 0 1 32.65,5.73 43.58,43.58 0 0 1 1.26,72.35 c -15.8,11.11 -39,9.87 -53.33,-3.24 -12.77,-11 -17.9,-29.81 -12.53,-45.77 a 43.08,43.08 0 0 1 31.95,-29.07 z"
     id="path46"
     inkscape:connector-curvature="0"
     style="fill:#0033ad" />
  <path
     class="cls-1"
     d="m 165.3022,420.35407 c 15,-5 32.66,7 32.78,23 1.37,13.91 -10.77,27.11 -24.7,27 -13.13,0.82 -25.75,-10.27 -26.12,-23.51 -1.31,-11.64 6.68,-23.43 18.04,-26.49 z"
     id="path48"
     inkscape:connector-curvature="0"
     style="fill:#0033ad" />
  <path
     class="cls-1"
     d="m 465.3822,420.00407 c 14.25,-5.38 31.54,4.86 33.5,20 2.81,13.94 -8.18,28.42 -22.32,29.65 -13.07,1.84 -26.39,-8.19 -28.11,-21.3 -2.19,-11.93 5.3,-24.73 16.93,-28.35 z"
     id="path50"
     inkscape:connector-curvature="0"
     style="fill:#0033ad" />
  <path
     class="cls-1"
     d="m 559.2622,478.54407 c 9.85,-2.9 21,4.38 22.25,14.59 2.08,10.47 -7.05,21.23 -17.74,20.75 -9.49,0.38 -18.1,-8.06 -18,-17.54 a 17.84,17.84 0 0 1 13.49,-17.8 z"
     id="path52"
     inkscape:connector-curvature="0"
     style="fill:#0033ad" />
  <path
     class="cls-1"
     d="m 76.642203,480.09407 c 9.75,-3.68 21.65,2.49 23.649997,12.84 3.22,11.46 -7.459997,23.53 -19.189997,22 -9.88,-0.62 -17.71,-10.54 -16,-20.33 a 17.48,17.48 0 0 1 11.54,-14.51 z"
     id="path54"
     inkscape:connector-curvature="0"
     style="fill:#0033ad" />
  <path
     class="cls-1"
     d="m 312.0622,507.66407 c 10.58,-4 23.87,-0.77 30.29,8.86 8.39,11.24 5.26,29 -6.8,36.36 -12.05,8.26 -30.64,3.52 -36.83,-9.84 -6.91,-12.79 -0.36,-30.42 13.34,-35.38 z"
     id="path56"
     inkscape:connector-curvature="0"
     style="fill:#0033ad" />
  <path
     class="cls-1"
     d="m 431.4322,531.46407 c 13,-3.39 26.85,7.72 26.55,21.11 0.32,11.83 -10.25,22.56 -22.18,21.84 -11.51,0.29 -21.86,-10.3 -21.35,-21.79 a 21.47,21.47 0 0 1 16.98,-21.16 z"
     id="path58"
     inkscape:connector-curvature="0"
     style="fill:#0033ad" />
  <path
     class="cls-1"
     d="m 202.8922,532.79407 c 11.56,-4.4 26.12,2.44 28.75,14.85 4,13 -7,28 -20.84,27.2 -12.7,0.88 -23.63,-11.56 -21.75,-24 a 21.4,21.4 0 0 1 13.84,-18.05 z"
     id="path60"
     inkscape:connector-curvature="0"
     style="fill:#0033ad" />
  <path
     class="cls-1"
     d="m 165.3122,609.60407 c 8.8,-3.7 19.77,3.16 19.53,12.87 0.8,10.56 -12.06,18.32 -21.08,12.76 -10.21,-5.07 -9.26,-21.84 1.55,-25.63 z"
     id="path62"
     inkscape:connector-curvature="0"
     style="fill:#0033ad" />
  <path
     class="cls-1"
     d="m 470.3622,609.24407 c 9,-4.65 21.12,3 20.15,13.22 0.56,10.76 -13,17.61 -21.64,11.66 -9.41,-5.27 -8.39,-20.72 1.49,-24.88 z"
     id="path64"
     inkscape:connector-curvature="0"
     style="fill:#0033ad" />
  <path
     class="cls-1"
     d="m 315.5822,618.43407 c 11.32,-4.75 25.4,5.34 24,17.68 0.22,11.32 -12.23,19.87 -22.82,16.51 -8.5,-2.15 -14.25,-11.24 -12.87,-19.85 a 17.72,17.72 0 0 1 11.69,-14.34 z"
     id="path66"
     inkscape:connector-curvature="0"
     style="fill:#0033ad" />
</svg>
