<svg xmlns="http://www.w3.org/2000/svg" width="545" height="169" viewBox="0 0 545 169">
    <path fill="#FFF" d="M31.092 68V15.105h17.875V5.437H.927v9.668h17.618V68h12.547zm36.05 0V33.969c.889-1.146 2.042-2.027 3.46-2.643 1.418-.616 3.086-.924 5.005-.924 2.32 0 4.061.752 5.221 2.256 1.16 1.504 1.74 4.06 1.74 7.67V68h12.547V40.414c0-6.732-1.382-11.709-4.146-14.932-2.765-3.222-6.567-4.834-11.408-4.834-2.579 0-4.928.595-7.047 1.784-2.12 1.188-3.91 2.843-5.371 4.963V.969H54.596V68h12.547zm50.618-57.621V.969h-12.547v9.41h12.547zm0 57.621V21.508h-12.547V68h12.547zm22.644 0V34.355c.917-1.231 2.084-2.198 3.502-2.9 1.418-.702 3.058-1.053 4.92-1.053 2.32 0 4.06.695 5.22 2.084 1.161 1.39 1.741 3.746 1.741 7.069V68h12.59V39.512c0-6.532-1.318-11.308-3.953-14.33-2.636-3.022-6.302-4.534-11-4.534-2.807 0-5.343.66-7.606 1.977-2.263 1.318-4.168 3.165-5.714 5.543l-.56-6.66h-11.687V68h12.547zm49.887 0V48.535h3.18L206.36 68H220.8L203.61 42.691l15.125-21.183h-14.523l-11.129 17.488h-2.793V.97h-12.547V68h12.547zm81.898.902c7.763 0 14.066-2.499 18.907-7.498 4.84-4.998 7.261-11.35 7.261-19.056V31.09c0-7.649-2.434-13.986-7.304-19.014-4.87-5.027-11.186-7.54-18.95-7.54-7.705 0-13.957 2.513-18.755 7.54-4.799 5.028-7.198 11.365-7.198 19.014v11.258c0 7.677 2.407 14.022 7.22 19.035 4.812 5.013 11.085 7.52 18.82 7.52zm0-9.754c-4.268 0-7.59-1.56-9.968-4.683-2.378-3.123-3.567-7.162-3.567-12.117V31.004c0-4.87 1.182-8.866 3.545-11.988 2.363-3.123 5.665-4.684 9.905-4.684 4.296 0 7.662 1.561 10.097 4.684 2.435 3.122 3.653 7.118 3.653 11.988v11.344c0 4.955-1.204 8.994-3.61 12.117-2.406 3.122-5.758 4.683-10.055 4.683zm50.489 9.754c2.922 0 5.485-.673 7.691-2.02 2.206-1.346 4.025-3.265 5.457-5.757L337.158 68h10.399V21.508H335.01v33.816c-.917 1.26-2.091 2.213-3.524 2.858-1.432.644-3.15.966-5.156.966-2.32 0-4.032-.752-5.135-2.255-1.103-1.504-1.654-4.29-1.654-8.358V21.508h-12.504v26.941c0 6.99 1.382 12.146 4.147 15.469 2.764 3.323 6.595 4.984 11.494 4.984zm50.36 0c1.403 0 2.699-.107 3.888-.322 1.189-.215 2.413-.537 3.674-.967l-1.032-9.066c-.63.172-1.188.293-1.675.365-.487.072-1.06.108-1.72.108-1.23 0-2.226-.387-2.986-1.16-.759-.774-1.138-2.063-1.138-3.868V30.316h7.863v-8.808h-7.863V10.12h-12.504v11.387h-6.79v8.808h6.79v23.72c0 5.155 1.167 8.922 3.502 11.3s5.665 3.566 9.99 3.566zm32.355 0c5.872 0 10.599-1.332 14.18-3.996 3.58-2.664 5.37-6.087 5.37-10.27 0-3.895-1.396-6.953-4.19-9.173-2.792-2.22-7.039-3.903-12.74-5.049-3.723-.716-6.194-1.525-7.411-2.428-1.218-.902-1.827-2.07-1.827-3.502 0-1.46.588-2.692 1.762-3.695 1.175-1.003 2.764-1.504 4.77-1.504 2.263 0 3.996.587 5.199 1.762 1.203 1.174 1.805 2.693 1.805 4.555h12.117l.086-.258c.143-4.183-1.554-7.677-5.092-10.485-3.538-2.807-8.243-4.21-14.115-4.21-5.615 0-10.112 1.403-13.493 4.21-3.38 2.808-5.07 6.202-5.07 10.184 0 3.781 1.41 6.775 4.233 8.98 2.821 2.206 6.953 3.853 12.396 4.942 3.61.745 6.08 1.611 7.412 2.6 1.332.988 1.998 2.17 1.998 3.544 0 1.605-.609 2.872-1.826 3.803s-2.986 1.397-5.307 1.397c-2.492 0-4.511-.559-6.058-1.676-1.547-1.117-2.363-2.922-2.45-5.414H385.67l-.086.258c-.172 4.01 1.54 7.584 5.135 10.72 3.595 3.137 8.486 4.705 14.674 4.705zm40.82-58.523V.969h-12.547v9.41h12.547zm0 57.621V21.508h-12.547V68h12.547zm26.426.902c2.578 0 4.87-.565 6.875-1.697 2.005-1.131 3.738-2.771 5.199-4.92L485.787 68h10.7V.969h-12.59v25.48c-1.404-1.862-3.037-3.294-4.899-4.297-1.862-1.002-3.953-1.504-6.273-1.504-5.758 0-10.22 2.25-13.385 6.747-3.166 4.497-4.748 10.412-4.748 17.746v.902c0 6.875 1.582 12.404 4.748 16.586 3.165 4.182 7.598 6.273 13.299 6.273zm3.222-9.754c-3.093 0-5.328-1.167-6.703-3.502-1.375-2.334-2.062-5.535-2.062-9.603v-.902c0-4.383.709-7.935 2.127-10.657 1.418-2.721 3.66-4.082 6.724-4.082 1.776 0 3.33.409 4.662 1.225 1.332.816 2.428 1.955 3.287 3.416v19.809c-.859 1.403-1.962 2.47-3.308 3.2-1.346.731-2.922 1.096-4.727 1.096zm50.489 9.754c3.752 0 7.218-.515 10.398-1.547 3.18-1.03 5.7-2.306 7.563-3.824l-3.395-7.734c-2.091 1.174-4.118 2.048-6.08 2.621-1.962.573-4.347.86-7.154.86-3.41 0-5.98-.989-7.713-2.965-1.733-1.977-2.7-4.555-2.9-7.735l.128-.258h27.715v-6.488c0-6.474-1.669-11.623-5.006-15.447s-8.128-5.737-14.373-5.737c-6.617-.028-11.816 2.178-15.597 6.618-3.782 4.44-5.672 10.14-5.672 17.101v1.719c0 6.703 1.948 12.182 5.843 16.435 3.896 4.254 9.31 6.381 16.243 6.381zm6.273-28.875h-15.297l-.086-.215c.287-2.864 1.11-5.163 2.47-6.896 1.362-1.733 3.302-2.6 5.823-2.6 2.492 0 4.297.781 5.414 2.342s1.676 3.703 1.676 6.424v.945zM120.145 168.902c1.403 0 2.7-.107 3.888-.322 1.189-.215 2.414-.537 3.674-.967l-1.031-9.066c-.63.172-1.189.293-1.676.365-.487.072-1.06.108-1.719.108-1.232 0-2.227-.387-2.986-1.16-.76-.774-1.139-2.063-1.139-3.868v-23.676h7.864v-8.808h-7.864V110.12h-12.504v11.387h-6.789v8.808h6.79v23.72c0 5.155 1.167 8.922 3.501 11.3 2.335 2.378 5.665 3.566 9.99 3.566zM147 168v-34.031c.888-1.146 2.041-2.027 3.459-2.643 1.418-.616 3.087-.924 5.006-.924 2.32 0 4.06.752 5.22 2.256 1.16 1.504 1.74 4.06 1.74 7.67V168h12.548v-27.586c0-6.732-1.383-11.709-4.147-14.932-2.764-3.222-6.567-4.834-11.408-4.834-2.578 0-4.927.595-7.047 1.784-2.12 1.188-3.91 2.843-5.371 4.963v-26.426h-12.547V168H147zm57.578.902c3.753 0 7.219-.515 10.399-1.547 3.18-1.03 5.7-2.306 7.562-3.824l-3.394-7.734c-2.092 1.174-4.118 2.048-6.08 2.621-1.963.573-4.348.86-7.155.86-3.409 0-5.98-.989-7.713-2.965-1.733-1.977-2.7-4.555-2.9-7.735l.129-.258h27.715v-6.488c0-6.474-1.669-11.623-5.006-15.447s-8.128-5.737-14.373-5.737c-6.617-.028-11.817 2.178-15.598 6.618-3.781 4.44-5.672 10.14-5.672 17.101v1.719c0 6.703 1.948 12.182 5.844 16.435 3.896 4.254 9.31 6.381 16.242 6.381zm6.274-28.875h-15.297l-.086-.214c.286-2.865 1.11-5.164 2.47-6.897 1.361-1.733 3.302-2.6 5.823-2.6 2.492 0 4.297.781 5.414 2.342s1.676 3.703 1.676 6.424v.945zM277.496 168c7.247 0 12.848-1.54 16.8-4.62 3.954-3.079 5.93-7.612 5.93-13.599 0-3.552-.988-6.66-2.964-9.324-1.977-2.664-4.913-4.354-8.809-5.07 2.865-1.146 5.042-2.85 6.531-5.114 1.49-2.263 2.235-4.826 2.235-7.691 0-5.672-2.063-9.947-6.188-12.826-4.125-2.879-9.868-4.319-17.23-4.319h-20.496V168h24.191zm-3.266-36.352h-8.378v-16.543h7.949c3.61 0 6.323.688 8.142 2.063 1.82 1.375 2.729 3.51 2.729 6.402 0 2.636-.902 4.64-2.707 6.016-1.805 1.375-4.383 2.062-7.735 2.062zm3.266 26.727h-11.644v-18.047h11.515c3.466 0 6.059.817 7.778 2.45 1.718 1.632 2.578 3.967 2.578 7.003 0 2.836-.874 4.977-2.621 6.424-1.748 1.447-4.283 2.17-7.606 2.17zm43.785 10.527c2.922 0 5.443-.744 7.563-2.234s3.824-3.366 5.113-5.629c.143 1.232.38 2.435.709 3.61.33 1.174.723 2.291 1.182 3.351h12.504c-.717-1.89-1.24-3.796-1.569-5.715-.33-1.92-.494-3.967-.494-6.144v-19.207c0-5.243-1.726-9.267-5.178-12.075-3.451-2.807-7.97-4.21-13.556-4.21-5.844 0-10.578 1.425-14.201 4.275-3.624 2.85-5.336 6.237-5.135 10.162l.086.258h12.074c0-1.719.551-3.073 1.654-4.06 1.103-.99 2.671-1.483 4.705-1.483 2.32 0 4.068.616 5.242 1.847 1.175 1.232 1.762 2.965 1.762 5.2v3.695h-7.047c-6.731 0-11.852 1.253-15.361 3.76-3.51 2.506-5.264 6.037-5.264 10.592 0 4.325 1.318 7.741 3.953 10.248 2.636 2.506 6.388 3.76 11.258 3.76zm3.094-9.28c-1.805 0-3.215-.466-4.232-1.397-1.017-.931-1.526-2.185-1.526-3.76 0-1.92.68-3.538 2.041-4.856 1.36-1.317 3.373-1.976 6.037-1.976h7.047v6.574c-.63 1.432-1.805 2.693-3.523 3.781-1.719 1.089-3.667 1.633-5.844 1.633zM368.031 168v-33.645c.917-1.231 2.084-2.198 3.502-2.9 1.418-.702 3.058-1.053 4.92-1.053 2.32 0 4.06.695 5.22 2.084 1.161 1.39 1.741 3.746 1.741 7.069V168h12.59v-28.488c0-6.532-1.318-11.308-3.953-14.33-2.636-3.022-6.302-4.534-11-4.534-2.808 0-5.343.66-7.606 1.977-2.263 1.318-4.168 3.165-5.715 5.543l-.558-6.66h-11.688V168h12.547zm49.887 0v-19.465h3.18L433.988 168h14.438l-17.188-25.309 15.125-21.183H431.84l-11.13 17.488h-2.792V100.97h-12.547V168h12.547z"/>
</svg>
