<svg xmlns="http://www.w3.org/2000/svg" width="421" height="121" viewBox="0 0 421 121">
    <path fill="#FFF" d="M23.622 51V11.33h13.406V4.077H1v7.251h13.213V51h9.41zm27.968 0V25.477c.666-.86 1.53-1.52 2.594-1.982 1.063-.462 2.315-.693 3.754-.693 1.74 0 3.046.564 3.916 1.692.87 1.128 1.305 3.045 1.305 5.752V51h9.41V30.31c0-5.048-1.036-8.781-3.11-11.198-2.073-2.417-4.925-3.626-8.556-3.626-1.933 0-3.695.446-5.285 1.338-1.59.891-2.933 2.132-4.028 3.722V.726h-9.41V51h9.41zM90.482 7.784V.727h-9.41v7.057h9.41zm0 43.216V16.13h-9.41V51h9.41zm17.913 0V25.767c.688-.924 1.563-1.65 2.627-2.176 1.063-.526 2.293-.79 3.69-.79 1.74 0 3.045.522 3.915 1.564.87 1.042 1.305 2.809 1.305 5.301V51h9.443V29.634c0-4.899-.989-8.481-2.965-10.748-1.977-2.266-4.727-3.4-8.25-3.4-2.106 0-4.007.494-5.704 1.483-1.698.988-3.126 2.374-4.286 4.157l-.42-4.995h-8.765V51h9.41zm38.345 0V36.401h2.385L158.793 51h10.828L156.73 32.019l11.344-15.888H157.18l-8.346 13.116h-2.095V.727h-9.41V51h9.41zm63.283.677c5.822 0 10.549-1.875 14.18-5.624 3.63-3.749 5.446-8.513 5.446-14.292v-8.444c0-5.736-1.826-10.49-5.479-14.26-3.652-3.77-8.39-5.656-14.212-5.656-5.779 0-10.468 1.886-14.067 5.656-3.598 3.77-5.398 8.524-5.398 14.26v8.444c0 5.758 1.805 10.516 5.415 14.276 3.609 3.76 8.314 5.64 14.115 5.64zm0-7.316c-3.201 0-5.694-1.17-7.477-3.512-1.783-2.342-2.675-5.371-2.675-9.088v-8.508c0-3.652.887-6.65 2.66-8.991 1.772-2.342 4.248-3.513 7.427-3.513 3.223 0 5.747 1.17 7.574 3.513 1.826 2.342 2.739 5.339 2.739 8.99v8.509c0 3.717-.903 6.746-2.707 9.088-1.805 2.341-4.319 3.512-7.541 3.512zm38.796 7.316c2.191 0 4.114-.505 5.768-1.515 1.654-1.01 3.019-2.45 4.093-4.318l.999 5.156h7.799V16.13h-9.41v25.363c-.688.945-1.569 1.66-2.643 2.143-1.074.484-2.363.725-3.867.725-1.74 0-3.024-.564-3.851-1.692-.827-1.127-1.241-3.217-1.241-6.268v-20.27h-9.378v20.206c0 5.242 1.037 9.11 3.11 11.601 2.073 2.493 4.947 3.739 8.62 3.739zm38.699 0c1.052 0 2.025-.08 2.916-.242.892-.161 1.81-.403 2.756-.725l-.774-6.8c-.473.13-.891.22-1.257.274-.365.054-.795.08-1.289.08-.924 0-1.67-.29-2.24-.87-.569-.58-.854-1.546-.854-2.9V22.737h5.898v-6.606h-5.898V7.59H277.4v8.54h-5.092v6.606h5.092v17.79c0 3.867.875 6.692 2.626 8.475 1.751 1.783 4.249 2.675 7.493 2.675zm25.196 0c4.404 0 7.95-1 10.635-2.997 2.685-1.998 4.028-4.566 4.028-7.702 0-2.922-1.047-5.216-3.142-6.88-2.095-1.666-5.28-2.928-9.555-3.787-2.793-.538-4.646-1.144-5.56-1.821-.912-.677-1.369-1.553-1.369-2.627 0-1.095.44-2.02 1.321-2.771.881-.752 2.073-1.128 3.577-1.128 1.698 0 2.997.44 3.9 1.321.902.881 1.353 2.02 1.353 3.416h9.088l.065-.193c.107-3.137-1.166-5.758-3.82-7.863-2.652-2.106-6.181-3.159-10.586-3.159-4.21 0-7.584 1.053-10.119 3.159-2.535 2.105-3.802 4.65-3.802 7.637 0 2.836 1.058 5.081 3.174 6.736 2.116 1.654 5.215 2.89 9.297 3.706 2.707.558 4.56 1.208 5.56 1.95.998.74 1.498 1.627 1.498 2.658 0 1.203-.457 2.154-1.37 2.852s-2.24 1.047-3.98 1.047c-1.869 0-3.384-.419-4.544-1.256-1.16-.838-1.772-2.192-1.837-4.06h-8.604l-.065.192c-.128 3.008 1.155 5.688 3.851 8.04 2.697 2.353 6.365 3.53 11.006 3.53zm31.545-43.893V.727h-9.41v7.057h9.41zm0 43.216V16.13h-9.41V51h9.41zm20.749.677c1.933 0 3.652-.425 5.156-1.273 1.504-.849 2.804-2.079 3.9-3.69l.805 4.286h8.024V.727h-9.442v19.11c-1.053-1.397-2.277-2.47-3.674-3.223-1.396-.752-2.965-1.128-4.705-1.128-4.318 0-7.665 1.687-10.039 5.06-2.374 3.373-3.56 7.81-3.56 13.31v.676c0 5.156 1.186 9.303 3.56 12.44 2.374 3.136 5.7 4.705 9.975 4.705zm2.417-7.316c-2.32 0-3.997-.875-5.028-2.626-1.031-1.751-1.547-4.152-1.547-7.203v-.677c0-3.287.532-5.95 1.596-7.992 1.063-2.04 2.744-3.061 5.043-3.061 1.332 0 2.498.306 3.497.918.999.613 1.82 1.467 2.465 2.562V41.14c-.645 1.052-1.472 1.853-2.482 2.4-1.01.548-2.19.822-3.544.822zm38.795 7.316c2.815 0 5.414-.387 7.8-1.16 2.384-.774 4.275-1.73 5.671-2.869l-2.546-5.8c-1.568.88-3.088 1.536-4.56 1.965-1.472.43-3.26.645-5.366.645-2.556 0-4.484-.741-5.784-2.224-1.3-1.482-2.025-3.416-2.176-5.8l.097-.194h20.786v-4.866c0-4.855-1.251-8.717-3.754-11.585-2.503-2.869-6.096-4.303-10.78-4.303-4.963-.021-8.862 1.633-11.698 4.963-2.836 3.33-4.254 7.606-4.254 12.826v1.29c0 5.027 1.46 9.136 4.383 12.326 2.922 3.19 6.982 4.786 12.181 4.786zm4.705-21.656h-11.472l-.065-.162c.215-2.148.833-3.872 1.853-5.172 1.02-1.3 2.476-1.95 4.367-1.95 1.87 0 3.223.586 4.06 1.757.838 1.17 1.257 2.777 1.257 4.818v.709zM15.63 120.677c1.053 0 2.025-.08 2.916-.242.892-.161 1.81-.403 2.756-.725l-.774-6.8c-.472.13-.891.22-1.257.274-.365.054-.794.08-1.289.08-.923 0-1.67-.29-2.24-.87-.569-.58-.853-1.546-.853-2.9V91.737h5.897v-6.606H14.89v-8.54H5.51v8.54H.419v6.606H5.51v17.79c0 3.867.875 6.692 2.626 8.475 1.751 1.783 4.249 2.675 7.493 2.675zM36.7 120V94.477c.666-.86 1.53-1.52 2.594-1.982 1.064-.462 2.315-.693 3.755-.693 1.74 0 3.045.564 3.915 1.692.87 1.128 1.305 3.045 1.305 5.752V120h9.41V99.31c0-5.048-1.036-8.781-3.11-11.198-2.073-2.417-4.925-3.626-8.555-3.626-1.934 0-3.696.446-5.286 1.338-1.59.891-2.932 2.132-4.028 3.722v-19.82h-9.41V120h9.41zm44.113.677c2.815 0 5.414-.387 7.8-1.16 2.384-.774 4.274-1.73 5.67-2.869l-2.545-5.8c-1.568.88-3.088 1.536-4.56 1.965-1.472.43-3.26.645-5.366.645-2.556 0-4.485-.741-5.784-2.224-1.3-1.482-2.025-3.416-2.176-5.8l.097-.194h20.786v-4.866c0-4.855-1.251-8.717-3.754-11.585-2.503-2.869-6.096-4.303-10.78-4.303-4.963-.021-8.862 1.633-11.698 4.963-2.836 3.33-4.254 7.606-4.254 12.826v1.29c0 5.027 1.46 9.136 4.383 12.326 2.921 3.19 6.982 4.786 12.181 4.786zM85.52 99.02H74.047l-.065-.162c.215-2.148.833-3.872 1.853-5.172 1.02-1.3 2.476-1.95 4.367-1.95 1.87 0 3.223.586 4.06 1.757.838 1.17 1.257 2.777 1.257 4.818v.709zM137.362 120c5.435 0 9.636-1.155 12.6-3.464 2.965-2.31 4.448-5.71 4.448-10.2 0-2.664-.741-4.995-2.224-6.993-1.482-1.998-3.684-3.266-6.606-3.803 2.148-.86 3.78-2.138 4.898-3.835 1.117-1.697 1.676-3.62 1.676-5.768 0-4.254-1.547-7.46-4.64-9.62-3.095-2.16-7.402-3.239-12.924-3.239h-15.372V120h18.144zm-2.45-27.264h-6.284V80.33h5.962c2.707 0 4.743.516 6.107 1.547 1.365 1.031 2.047 2.632 2.047 4.802 0 1.976-.677 3.48-2.03 4.511-1.354 1.032-3.288 1.547-5.801 1.547zm2.45 20.045h-8.734V99.246h8.637c2.6 0 4.544.612 5.833 1.837 1.29 1.225 1.934 2.976 1.934 5.253 0 2.127-.655 3.733-1.966 4.818-1.31 1.085-3.212 1.627-5.704 1.627zm33.768 7.896c2.192 0 4.082-.559 5.672-1.676 1.59-1.117 2.868-2.524 3.835-4.222.108.924.285 1.826.532 2.707.247.881.542 1.72.886 2.514h9.378c-.537-1.418-.93-2.847-1.176-4.286-.247-1.44-.37-2.976-.37-4.609V96.7c0-3.931-1.295-6.95-3.884-9.055-2.589-2.106-5.978-3.159-10.168-3.159-4.382 0-7.933 1.07-10.65 3.207-2.718 2.138-4.002 4.678-3.852 7.621l.065.194h9.056c0-1.29.413-2.304 1.24-3.046.827-.74 2.004-1.111 3.53-1.111 1.74 0 3.05.461 3.93 1.385.882.924 1.322 2.224 1.322 3.9v2.771h-5.285c-5.049 0-8.89.94-11.521 2.82-2.632 1.88-3.948 4.528-3.948 7.944 0 3.244.988 5.806 2.965 7.686 1.977 1.88 4.791 2.82 8.443 2.82zm2.32-6.961c-1.353 0-2.411-.35-3.174-1.048-.762-.698-1.144-1.638-1.144-2.82 0-1.439.51-2.653 1.531-3.641 1.02-.988 2.53-1.482 4.528-1.482h5.285v4.93c-.473 1.074-1.354 2.02-2.643 2.836-1.289.817-2.75 1.225-4.382 1.225zM207.123 120V94.767c.688-.924 1.563-1.65 2.627-2.176 1.063-.526 2.293-.79 3.69-.79 1.74 0 3.045.522 3.915 1.564.87 1.042 1.305 2.809 1.305 5.301V120h9.443V98.634c0-4.899-.988-8.481-2.965-10.748-1.977-2.266-4.727-3.4-8.25-3.4-2.105 0-4.007.494-5.704 1.483-1.697.988-3.126 2.374-4.286 4.157l-.42-4.995h-8.765V120h9.41zm38.345 0v-14.599h2.385L257.52 120h10.828l-12.89-18.981L266.8 85.13h-10.893l-8.346 13.116h-2.095v-28.52h-9.41V120h9.41z"/>
</svg>
