<svg width="14" height="12" viewBox="0 0 14 12" fill="none" xmlns="http://www.w3.org/2000/svg">
<path d="M8.49023 10.8652L12.8652 6.49023C13.0384 6.32617 13.125 6.12109 13.125 5.875C13.125 5.62891 13.0384 5.42383 12.8652 5.25977L8.49023 0.884766C8.32617 0.711589 8.12109 0.625 7.875 0.625C7.62891 0.625 7.42383 0.711589 7.25977 0.884766C7.08659 1.04883 7 1.25391 7 1.5C7 1.74609 7.08659 1.95117 7.25977 2.11523L10.1309 5H1.75C1.50391 5 1.29427 5.08659 1.12109 5.25977C0.957031 5.42383 0.875 5.62891 0.875 5.875C0.875 6.12109 0.957031 6.33073 1.12109 6.50391C1.29427 6.66797 1.50391 6.75 1.75 6.75H10.1309L7.25977 9.63477C7.16862 9.7168 7.10026 9.8125 7.05469 9.92188C7.01823 10.0312 7 10.1406 7 10.25C7 10.3594 7.01823 10.4688 7.05469 10.5781C7.10026 10.6875 7.16862 10.7832 7.25977 10.8652C7.42383 11.0384 7.62891 11.125 7.875 11.125C8.12109 11.125 8.32617 11.0384 8.49023 10.8652Z" fill="#2A2C2D"/>
</svg>
