<svg xmlns="http://www.w3.org/2000/svg" width="527" height="181" viewBox="0 0 527 181">
    <defs>
        <linearGradient id="dx7pnlzw8a" x1="61.018%" x2="26.519%" y1="4.979%" y2="71.921%">
            <stop offset="0%" stop-color="#00A0FF"/>
            <stop offset=".657%" stop-color="#00A1FF"/>
            <stop offset="26.01%" stop-color="#00BEFF"/>
            <stop offset="51.22%" stop-color="#00D2FF"/>
            <stop offset="76.04%" stop-color="#00DFFF"/>
            <stop offset="100%" stop-color="#00E3FF"/>
        </linearGradient>
        <linearGradient id="w5viy4zl8b" x1="107.622%" x2="-130.536%" y1="50.001%" y2="50.001%">
            <stop offset="0%" stop-color="#FFE000"/>
            <stop offset="40.87%" stop-color="#FFBD00"/>
            <stop offset="77.54%" stop-color="orange"/>
            <stop offset="100%" stop-color="#FF9C00"/>
        </linearGradient>
        <linearGradient id="uw20716vlc" x1="86.253%" x2="-50.188%" y1="30.89%" y2="136.074%">
            <stop offset="0%" stop-color="#FF3A44"/>
            <stop offset="100%" stop-color="#C31162"/>
        </linearGradient>
        <linearGradient id="1nrblc0s5d" x1="-18.77%" x2="42.12%" y1="-11.838%" y2="35.074%">
            <stop offset="0%" stop-color="#32A071"/>
            <stop offset="6.85%" stop-color="#2DA771"/>
            <stop offset="47.62%" stop-color="#15CF74"/>
            <stop offset="80.09%" stop-color="#06E775"/>
            <stop offset="100%" stop-color="#00F076"/>
        </linearGradient>
    </defs>
    <g fill="none" fill-rule="evenodd">
        <g>
            <g>
                <g stroke="#FFF">
                    <path d="M0.5 0.5H526.5V180.5H0.5z" transform="translate(-121 -1876) translate(121 1876)"/>
                </g>
                <g fill-rule="nonzero">
                    <g fill="#FFF" stroke="#FFF" stroke-width=".2">
                        <path d="M23.288 12.623c0 3.047-.907 5.478-2.72 7.255-2.032 2.14-4.716 3.229-7.98 3.229-3.157 0-5.805-1.089-8.017-3.265-2.213-2.176-3.301-4.897-3.301-8.09 0-3.228 1.088-5.912 3.3-8.088C6.784 1.487 9.432.399 12.588.399c1.56 0 3.047.29 4.462.907 1.415.617 2.54 1.415 3.41 2.43L18.536 5.66c-1.45-1.705-3.41-2.576-5.949-2.576-2.285 0-4.28.798-5.949 2.43-1.668 1.597-2.503 3.7-2.503 6.276 0 2.576.835 4.68 2.503 6.276 1.669 1.596 3.664 2.43 5.95 2.43 2.43 0 4.46-.798 6.093-2.43 1.052-1.052 1.669-2.54 1.814-4.426h-7.908v-2.612h10.556c.072.544.145 1.089.145 1.596zM40.01 3.555L30.108 3.555 30.108 10.447 39.031 10.447 39.031 13.059 30.108 13.059 30.108 19.951 40.01 19.951 40.01 22.635 27.314 22.635 27.314.871 40.01.871 40.01 3.555zM51.8 22.635L49.006 22.635 49.006 3.555 42.912 3.555 42.912.871 57.857.871 57.857 3.555 51.763 3.555 51.763 22.635zM68.703 22.635L68.703.871 71.496.871 71.496 22.635zM83.902 22.635L81.109 22.635 81.109 3.555 75.015 3.555 75.015.871 89.96.871 89.96 3.555 83.866 3.555 83.866 22.635zM118.29 19.806c-2.14 2.212-4.788 3.3-7.98 3.3s-5.84-1.088-7.98-3.3c-2.14-2.213-3.193-4.897-3.193-8.053 0-3.192 1.052-5.877 3.192-8.053 2.14-2.213 4.789-3.301 7.98-3.301 3.157 0 5.805 1.088 7.981 3.301 2.14 2.213 3.229 4.897 3.229 8.053-.037 3.192-1.089 5.876-3.229 8.053zm-13.893-1.814c1.596 1.632 3.591 2.43 5.913 2.43 2.321 0 4.316-.798 5.913-2.43 1.596-1.632 2.43-3.7 2.43-6.24 0-2.538-.798-4.606-2.43-6.238-1.597-1.633-3.592-2.43-5.913-2.43-2.322 0-4.317.797-5.913 2.43-1.596 1.632-2.43 3.7-2.43 6.239 0 2.539.834 4.607 2.43 6.239zM125.436 22.635L125.436.871 128.846.871 139.438 17.811 139.547 17.811 139.438 13.603 139.438.871 142.231.871 142.231 22.635 139.329 22.635 128.266 4.897 128.157 4.897 128.266 9.105 128.266 22.671 125.436 22.671z" transform="translate(-121 -1876) translate(121 1876) translate(50 41) translate(117)"/>
                    </g>
                    <path fill="#FFF" d="M215.713 54.12c-8.56 0-15.554 6.52-15.554 15.48 0 8.925 6.994 15.482 15.554 15.482s15.554-6.557 15.554-15.481c0-8.96-6.994-15.481-15.554-15.481zm0 24.879c-4.699 0-8.742-3.861-8.742-9.398 0-5.573 4.043-9.398 8.742-9.398 4.7 0 8.742 3.825 8.742 9.398 0 5.537-4.08 9.398-8.742 9.398zM181.765 54.12c-8.56 0-15.554 6.52-15.554 15.48 0 8.925 6.994 15.482 15.554 15.482s15.553-6.557 15.553-15.481c0-8.96-6.993-15.481-15.553-15.481zm0 24.879c-4.7 0-8.743-3.861-8.743-9.398 0-5.573 4.044-9.398 8.743-9.398 4.698 0 8.742 3.825 8.742 9.398 0 5.537-4.044 9.398-8.742 9.398zm-40.36-20.107v6.556h15.736c-.474 3.68-1.712 6.411-3.57 8.269-2.295 2.295-5.864 4.808-12.13 4.808-9.689 0-17.265-7.795-17.265-17.484 0-9.69 7.576-17.484 17.266-17.484 5.208 0 9.033 2.04 11.838 4.698l4.626-4.626c-3.934-3.751-9.143-6.629-16.5-6.629C128.145 37 117 47.782 117 61.077c0 13.26 11.146 24.078 24.405 24.078 7.176 0 12.567-2.332 16.792-6.74 4.335-4.334 5.683-10.453 5.683-15.37 0-1.53-.11-2.951-.365-4.117h-22.11v-.036zm165.044 5.1c-1.275-3.461-5.209-9.872-13.259-9.872-7.977 0-14.606 6.265-14.606 15.48 0 8.67 6.556 15.482 15.371 15.482 7.103 0 11.22-4.335 12.895-6.848l-5.282-3.534C299.82 77.287 297.416 79 293.955 79c-3.46 0-5.937-1.567-7.503-4.7l20.726-8.56-.729-1.748zm-21.127 5.135c-.182-5.973 4.626-9.033 8.087-9.033 2.695 0 4.99 1.348 5.755 3.278l-13.842 5.755zm-16.828 15.044h6.811V38.64h-6.811v45.532zm-11.146-26.59h-.255c-1.53-1.822-4.444-3.461-8.16-3.461-7.758 0-14.861 6.812-14.861 15.554 0 8.669 7.103 15.444 14.861 15.444 3.68 0 6.63-1.639 8.16-3.533h.218v2.222c0 5.937-3.169 9.106-8.268 9.106-4.153 0-6.74-2.987-7.796-5.5l-5.937 2.477c1.712 4.116 6.229 9.143 13.733 9.143 7.977 0 14.715-4.7 14.715-16.137V55.067h-6.447v2.513h.037zm-7.832 21.418c-4.699 0-8.633-3.934-8.633-9.325 0-5.464 3.934-9.435 8.633-9.435 4.626 0 8.269 4.007 8.269 9.435.036 5.39-3.606 9.325-8.269 9.325zm88.842-40.36h-16.282v45.532h6.811V66.905h9.507c7.54 0 14.935-5.463 14.935-14.133 0-8.669-7.467-14.133-14.971-14.133zm.146 21.928h-9.653V44.941h9.653c5.1 0 7.977 4.225 7.977 7.795 0 3.57-2.878 7.831-7.977 7.831zm42.035-6.52c-4.918 0-10.017 2.186-12.13 6.957l6.047 2.514c1.275-2.514 3.679-3.351 6.192-3.351 3.497 0 7.103 2.112 7.14 5.864v.474c-1.24-.692-3.862-1.749-7.104-1.749-6.52 0-13.113 3.57-13.113 10.236 0 6.083 5.318 10.017 11.292 10.017 4.553 0 7.103-2.04 8.67-4.444h.218v3.533h6.557V66.65c.036-8.086-6.01-12.603-13.77-12.603zM379.7 79c-2.222 0-5.318-1.13-5.318-3.861 0-3.497 3.86-4.845 7.212-4.845 2.987 0 4.408.656 6.192 1.53-.51 4.189-4.152 7.176-8.086 7.176zm38.538-23.968l-7.795 19.742h-.219l-8.086-19.742h-7.322l12.13 27.61-6.92 15.335h7.102l18.687-42.945h-7.577zm-61.195 29.14h6.812V38.64h-6.812v45.532z" transform="translate(-121 -1876) translate(121 1876) translate(50 41)"/>
                    <g>
                        <path fill="url(#dx7pnlzw8a)" d="M5.007 2.712C4 3.79 3.407 5.46 3.407 7.581V84.5c0 2.156.592 3.825 1.6 4.869l.244.243 43.085-43.05v-1.044L5.251 2.434l-.244.278z" transform="translate(-121 -1876) translate(121 1876) translate(50 41) translate(0 2)"/>
                        <path fill="url(#w5viy4zl8b)" d="M62.698 60.924L48.336 46.563v-1.044l14.362-14.361.313.174 17.004 9.667c4.869 2.747 4.869 7.268 0 10.05l-17.004 9.667-.313.208z" transform="translate(-121 -1876) translate(121 1876) translate(50 41) translate(0 2)"/>
                        <path fill="url(#uw20716vlc)" d="M63.01 60.716L48.337 46.04 5.007 89.37c1.6 1.704 4.243 1.912 7.234.208l50.77-28.862" transform="translate(-121 -1876) translate(121 1876) translate(50 41) translate(0 2)"/>
                        <path fill="url(#1nrblc0s5d)" d="M63.01 31.366L12.207 2.504C9.216.8 6.572 1.008 4.973 2.712l43.363 43.329 14.675-14.675z" transform="translate(-121 -1876) translate(121 1876) translate(50 41) translate(0 2)"/>
                        <g fill="#000">
                            <path d="M62.698 1.287L12.206 29.975c-2.817 1.6-5.355 1.496-6.955.035l-.244.244.244.243c1.634 1.46 4.138 1.565 6.955-.035L63.01 1.6l-.313-.313z" opacity=".2" transform="translate(-121 -1876) translate(121 1876) translate(50 41) translate(0 2) translate(0 59.116)"/>
                            <path d="M5.007 29.767c-1.008-1.078-1.6-2.747-1.6-4.869v.522c0 2.156.592 3.825 1.6 4.868l.244-.243-.244-.278z" opacity=".12" transform="translate(-121 -1876) translate(121 1876) translate(50 41) translate(0 2) translate(0 59.116)"/>
                        </g>
                        <path fill="#000" d="M80.015 50.562l-17.352 9.84.313.314 17.005-9.667c2.434-1.391 3.65-3.2 3.65-5.008-.173 1.634-1.39 3.269-3.616 4.52z" opacity=".12" transform="translate(-121 -1876) translate(121 1876) translate(50 41) translate(0 2)"/>
                        <path fill="#FFF" d="M12.206 2.99l67.81 38.53c2.19 1.252 3.442 2.852 3.65 4.521 0-1.808-1.216-3.651-3.65-5.007l-67.81-38.53C7.337-.243 3.373 2.052 3.373 7.616v.521c0-5.598 4-7.894 8.833-5.146z" opacity=".25" transform="translate(-121 -1876) translate(121 1876) translate(50 41) translate(0 2)"/>
                    </g>
                </g>
            </g>
        </g>
    </g>
</svg>
