<svg xmlns="http://www.w3.org/2000/svg" width="524" height="180" viewBox="0 0 524 180">
    <g fill="none" fill-rule="evenodd">
        <rect width="523" height="179" x=".5" y=".5" stroke="#FFF" rx="1"/>
        <path fill="#FFF" d="M205.41 131.328h-9.04l-4.95-15.85h-17.21l-4.717 15.85h-8.8l17.05-53.963h10.532l17.134 53.963zm28.05-39.71c4.506 0 8.267 1.813 11.276 5.442 3.017 3.633 4.522 8.41 4.522 14.334 0 6.617-1.755 11.848-5.266 15.688-3.144 3.419-7.049 5.126-11.71 5.126-5.03 0-8.644-1.841-10.845-5.523h-.16v20.497h-8.485v-41.956c0-4.16-.107-8.43-.314-12.809h7.463l.473 6.168h.16c2.83-4.647 7.124-6.967 12.887-6.967zm43.933 0c4.501 0 8.262 1.813 11.28 5.442 3.004 3.633 4.513 8.41 4.513 14.334 0 6.617-1.755 11.848-5.27 15.688-3.14 3.419-7.045 5.126-11.705 5.126-5.031 0-8.645-1.841-10.842-5.523h-.16v20.497h-8.485v-41.956c0-4.16-.107-8.43-.314-12.809h7.463l.473 6.168h.16c2.825-4.647 7.12-6.967 12.887-6.967zm116.767.004c5.604 0 10.113 1.894 13.516 5.685 3.256 3.678 4.88 8.426 4.88 14.245 0 5.981-1.68 10.891-5.031 14.731-3.514 3.954-8.179 5.925-13.994 5.925-5.604 0-10.065-1.894-13.393-5.681-3.327-3.788-4.99-8.568-4.99-14.33 0-6.03 1.71-10.969 5.145-14.809 3.427-3.844 8.052-5.766 13.867-5.766zm-65.922-15.047c4.82 0 8.824.855 12.02 2.562l-2.121 7.048c-2.985-1.655-6.36-2.482-10.138-2.482-2.985 0-5.317.75-6.989 2.242-1.413 1.334-2.121 2.96-2.121 4.887 0 2.132.808 3.896 2.432 5.283 1.413 1.281 3.98 2.668 7.705 4.164 4.557 1.87 7.905 4.055 10.058 6.561 2.145 2.498 3.216 5.624 3.216 9.355 0 4.59-1.564 8.325-4.705 11.208-3.45 3.15-8.254 4.724-14.427 4.724-5.7 0-10.269-1.12-13.728-3.362l1.966-7.206c3.726 2.296 7.813 3.447 12.267 3.447 3.196 0 5.684-.738 7.47-2.206 1.78-1.468 2.667-3.438 2.667-5.896 0-2.19-.732-4.034-2.2-5.53-1.461-1.497-3.901-2.887-7.308-4.173-9.274-3.524-13.906-8.685-13.906-15.473 0-4.436 1.623-8.074 4.875-10.904 3.24-2.834 7.562-4.25 12.967-4.25zm32.764 6.147v9.687h9.353v6.496h-9.353v18.892c0 4.805 1.648 7.205 4.951 7.205 1.517 0 2.774-.134 3.77-.401l.234 6.565c-1.671.636-3.872.956-6.599.956-3.351 0-5.97-1.042-7.86-3.122-1.883-2.084-2.83-5.58-2.83-10.49V98.897h-5.572v-6.488h5.572v-7.125l8.334-2.562zm101.217 8.823c5.505 0 9.672 2.08 12.501 6.24 2.241 3.305 3.368 7.393 3.368 12.246 0 1.55-.1 2.855-.31 3.922H452.32c.1 3.844 1.329 6.783 3.693 8.81 2.145 1.813 4.92 2.722 8.326 2.722 3.77 0 7.208-.613 10.3-1.841l1.33 6c-3.614 1.607-7.88 2.405-12.804 2.405-5.922 0-10.57-1.776-13.954-5.324-3.375-3.548-5.066-8.312-5.066-14.289 0-5.867 1.572-10.754 4.72-14.65 3.295-4.16 7.75-6.24 13.353-6.24zm-24.203.073c.784 0 1.493.057 2.122.158v8.244c-.84-.158-1.736-.24-2.675-.24-2.985 0-5.293 1.148-6.917 3.447-1.413 2.028-2.122 4.59-2.122 7.684v20.417h-8.481l.08-26.657c0-4.485-.108-8.568-.319-12.25h7.391l.31 7.445h.235c.896-2.559 2.309-4.619 4.243-6.164 1.89-1.39 3.932-2.084 6.133-2.084zm-44.159 6.326c-3.41 0-6.001 1.553-7.78 4.655-1.525 2.57-2.277 5.697-2.277 9.395 0 3.589.752 6.666 2.276 9.229 1.835 3.106 4.398 4.655 7.706 4.655 3.24 0 5.783-1.581 7.618-4.736 1.564-2.616 2.352-5.726 2.352-9.31 0-3.589-.752-6.666-2.277-9.233-1.779-3.106-4.322-4.655-7.618-4.655zm-163.146.555c-2.094 0-3.996.714-5.696 2.121-1.703 1.42-2.818 3.272-3.34 5.567-.262 1.07-.393 1.947-.393 2.636v6.488c0 2.83.852 5.219 2.555 7.169 1.704 1.95 3.916 2.924 6.639 2.924 3.196 0 5.683-1.257 7.462-3.763 1.784-2.51 2.675-5.82 2.675-9.93 0-3.788-.836-6.91-2.515-9.368-1.835-2.562-4.299-3.844-7.387-3.844zm43.928 0c-2.098 0-3.996.714-5.7 2.121-1.703 1.42-2.814 3.272-3.335 5.567-.259 1.07-.394 1.947-.394 2.636v6.488c0 2.83.852 5.219 2.547 7.169 1.704 1.946 3.916 2.924 6.647 2.924 3.196 0 5.683-1.257 7.462-3.763 1.783-2.51 2.675-5.82 2.675-9.93 0-3.788-.84-6.91-2.52-9.368-1.834-2.562-4.29-3.844-7.382-3.844zm-91.86-13.928c1.31 5.336 2.197 8.726 2.67 10.165l4.478 14.091h-14.22l4.397-14.09c1.154-4.481 1.994-7.871 2.516-10.166zm278.807 12.967c-2.774 0-5.03 1.172-6.754 3.524-1.413 1.87-2.253 4.112-2.511 6.723h17.674l.005-.445c-.015-2.373-.569-4.438-1.652-6.197-1.468-2.404-3.725-3.605-6.762-3.605zM198.765 34.98c2.708 0 4.884 1.011 6.531 3.037 1.566 1.97 2.352 4.512 2.352 7.62 0 3.2-.81 5.822-2.43 7.879-1.698 2.114-3.949 3.17-6.759 3.17-2.708 0-4.864-1.012-6.473-3.042-1.604-2.026-2.406-4.582-2.406-7.663 0-3.223.825-5.867 2.485-7.92 1.66-2.052 3.89-3.08 6.7-3.08zm87.46 0c2.712 0 4.884 1.011 6.535 3.037 1.566 1.97 2.352 4.512 2.352 7.62 0 3.2-.81 5.822-2.43 7.879-1.699 2.114-3.953 3.17-6.759 3.17-2.712 0-4.868-1.012-6.473-3.042-1.604-2.026-2.407-4.582-2.407-7.663 0-3.223.826-5.867 2.486-7.92 1.659-2.052 3.89-3.08 6.696-3.08zm21.23 0c4.822 0 7.24 2.87 7.24 8.608v7.663c0 2.08.09 3.735.267 4.962h-3.683l-.305-2.397h-.114c-1.26 1.911-3.056 2.87-5.389 2.87-1.741 0-3.15-.632-4.21-1.886-.963-1.139-1.445-2.556-1.445-4.237 0-2.543.94-4.48 2.83-5.823 1.886-1.342 4.54-2 7.956-1.968v-.389c0-2.741-1.276-4.11-3.831-4.11-1.82 0-3.425.517-4.81 1.541l-.834-3.037c1.714-1.196 3.832-1.797 6.329-1.797zm30.667-9.124v24.75c0 2.027.047 3.894.145 5.607h-3.64l-.191-3.342h-.114c-1.162 2.543-3.143 3.814-5.925 3.814-2.223 0-4.074-.984-5.542-2.953-1.467-1.969-2.2-4.525-2.2-7.663 0-3.368.795-6.096 2.392-8.18 1.546-1.942 3.44-2.913 5.694-2.913 2.478 0 4.211.94 5.198 2.825h.078V25.856h4.105zm26.342 9.124c2.704 0 4.884 1.011 6.528 3.037 1.565 1.97 2.352 4.512 2.352 7.62 0 3.2-.81 5.822-2.43 7.879-1.699 2.114-3.945 3.17-6.759 3.17-2.704 0-4.86-1.012-6.473-3.042-1.605-2.026-2.407-4.582-2.407-7.663 0-3.223.826-5.867 2.485-7.92 1.66-2.052 3.89-3.08 6.704-3.08zm54.015-4.758V35.4h4.516v3.47h-4.512v10.108c0 2.569.802 3.853 2.391 3.853.736 0 1.346-.07 1.828-.216l.105 3.51c-.81.344-1.874.516-3.185.516-1.62 0-2.88-.556-3.793-1.669-.915-1.112-1.37-2.984-1.37-5.61V38.869h-2.696v-3.465h2.697V31.59l4.019-1.368zm40.955 4.719c2.653 0 4.669 1.112 6.03 3.337 1.1 1.766 1.645 3.95 1.645 6.546 0 .83-.055 1.527-.153 2.097h-12.3c.054 2.057.641 3.624 1.78 4.71 1.041.971 2.384 1.457 4.027 1.457 1.82 0 3.48-.327 4.974-.985l.642 3.214c-1.749.856-3.808 1.284-6.19 1.284-2.858 0-5.108-.949-6.736-2.847-1.636-1.898-2.446-4.445-2.446-7.64 0-3.14.755-5.753 2.278-7.836 1.588-2.225 3.737-3.337 6.45-3.337zm-288.682-7.805c4.48 0 7.858 1.1 10.136 3.298 2.551 2.485 3.831 6.038 3.831 10.665 0 5.195-1.381 9.106-4.14 11.732-2.556 2.424-6.188 3.638-10.892 3.638-2.332 0-4.328-.115-6-.345V27.737c2.18-.397 4.529-.6 7.065-.6zm82.485 7.831c1.722 0 3.155.627 4.293 1.885 1.417 1.54 2.126 3.84 2.126 6.895v12.466h-4.102V44.294c0-3.672-1.237-5.508-3.718-5.508-1.217 0-2.2.503-2.962 1.514-.756 1.01-1.14 2.202-1.14 3.566v12.342h-4.1V41.35c0-1.827-.051-3.81-.15-5.955h3.605l.192 3.254h.113c.478-1.011 1.19-1.845 2.125-2.512 1.112-.777 2.356-1.17 3.718-1.17zm-37.358.437l2.086 9.892c.504 2.34.92 4.57 1.252 6.68h.074c.306-1.74.81-3.956 1.523-6.635l2.618-9.932h3.342l2.509 9.72c.606 2.37 1.1 4.652 1.479 6.85h.113c.278-2.14.697-4.422 1.253-6.85l2.238-9.72h4.026l-5.771 20.804h-3.757l-2.391-9.036c-.607-2.256-1.1-4.498-1.484-6.723h-.074c-.356 2.287-.85 4.525-1.483 6.723l-2.54 9.036h-3.8l-5.428-20.809h4.215zm55.087-9.548v30.357h-4.098V25.856h4.098zm118.017 9.111c1.718 0 3.15.627 4.289 1.885 1.42 1.54 2.125 3.84 2.125 6.895v12.466h-4.098V44.294c0-3.672-1.236-5.508-3.721-5.508-1.218 0-2.2.503-2.96 1.514-.758 1.01-1.138 2.202-1.138 3.566v12.342h-4.105V41.35c0-1.827-.047-3.81-.145-5.955h3.6l.192 3.254h.114c.481-1.011 1.193-1.845 2.125-2.512 1.115-.777 2.356-1.17 3.721-1.17zm43.804-9.11v12.54h.078c1.292-2.282 3.143-3.42 5.542-3.42 1.698 0 3.103.626 4.218 1.884 1.39 1.567 2.086 3.898 2.086 6.979v12.373h-4.105v-11.83c0-3.73-1.237-5.597-3.714-5.597-1.902 0-3.201 1.081-3.913 3.244-.122.455-.192 1.01-.192 1.664v12.514h-4.098V25.856h4.098zm-68.475 12.5c-1.644 0-2.897.83-3.761 2.49-.736 1.373-1.1 3.046-1.1 5.023 0 1.92.368 3.567 1.1 4.94.888 1.66 2.125 2.49 3.721 2.49 1.566 0 2.799-.844 3.683-2.534.755-1.4 1.139-3.06 1.139-4.98 0-1.92-.368-3.566-1.1-4.939-.865-1.66-2.086-2.49-3.682-2.49zm-60.394 11.69c0 1.085.258 1.897.786 2.44.529.543 1.202.812 2.004.812.9 0 1.742-.322 2.509-.962.77-.644 1.244-1.461 1.42-2.463.043-.225.067-.499.067-.812v-3.21c-4.524-.088-6.786 1.312-6.786 4.194zm-17.838-11.69c-1.652 0-2.904.83-3.761 2.49-.736 1.373-1.1 3.046-1.1 5.023 0 1.92.368 3.567 1.1 4.94.888 1.66 2.125 2.49 3.722 2.49 1.565 0 2.79-.844 3.674-2.534.764-1.4 1.14-3.06 1.14-4.98 0-1.92-.369-3.566-1.1-4.939-.857-1.66-2.086-2.49-3.675-2.49zm-87.464 0c-1.648 0-2.9.83-3.76 2.49-.737 1.373-1.1 3.046-1.1 5.023 0 1.92.367 3.567 1.1 4.94.887 1.66 2.124 2.49 3.72 2.49 1.566 0 2.795-.844 3.68-2.534.759-1.4 1.138-3.06 1.138-4.98 0-1.92-.367-3.566-1.1-4.939-.86-1.66-2.085-2.49-3.678-2.49zm131.06.217c-1.53 0-2.727.684-3.608 2.057-.872 1.372-1.315 3.125-1.315 5.266 0 2.057.42 3.725 1.26 5.01.889 1.368 2.087 2.053 3.585 2.053 1.347 0 2.423-.57 3.24-1.713.791-1.055 1.179-2.326 1.179-3.81v-3.47c0-.6-.04-1.085-.114-1.456-.23-1.112-.728-2.048-1.483-2.803-.763-.755-1.683-1.134-2.743-1.134zm-158.584-7.796c-1.291 0-2.391.097-3.303.3V52.66c.505.089 1.428.128 2.77.128 3.14 0 5.562-.984 7.268-2.953 1.707-1.968 2.568-4.838 2.568-8.607 0-3.368-.791-5.95-2.372-7.752-1.581-1.796-3.89-2.697-6.931-2.697zm288.045 7.367c-1.339 0-2.43.627-3.264 1.885-.681 1.002-1.084 2.199-1.217 3.598h8.539c.031-1.373-.239-2.556-.794-3.554-.713-1.284-1.797-1.929-3.264-1.929zM80.534 63.618c4.144 0 12.035-5.611 20.169-4.772 3.403.097 13.089 1.318 19.337 10.249-.504.296-11.538 6.652-11.418 19.719.137 15.66 13.974 20.837 14.144 20.894-.083.365-2.167 7.472-7.357 14.688-4.334 6.353-8.875 12.564-16.087 12.677-7.006.158-9.363-4.042-17.398-4.042-8.11 0-10.62 3.929-17.34 4.2-6.87.248-12.117-6.782-16.608-13.078-8.978-12.856-15.967-36.227-6.596-52.131 4.54-7.8 12.82-12.823 21.67-12.957 6.877-.138 13.258 4.553 17.484 4.553zm20.256-29.806c.686 6.118-1.787 12.146-5.401 16.577-3.772 4.362-9.805 7.699-15.682 7.27-.769-5.887 2.209-12.147 5.542-15.966 3.767-4.334 10.31-7.654 15.54-7.88z"/>
    </g>
</svg>
